/* XPM */
static char *tiles1728577708[] = {
/* columns rows colors chars-per-pixel */
"128 128 92 1 ",
"  c #A1B7CC",
". c #A1B7CE",
"X c #A3B9CE",
"o c #A4BACF",
"O c #A2B8D0",
"+ c #A3B9D0",
"@ c #A4BAD1",
"# c #A5BBD2",
"$ c #A5BBD3",
"% c #A6BCD1",
"& c #A7BDD2",
"* c #A6BCD3",
"= c #A3B8D5",
"- c #A6BCD4",
"; c #A7BDD5",
": c #A7BCD7",
"> c #A8BED3",
", c #A8BED5",
"< c #A8BED6",
"1 c #A6BADD",
"2 c #A7BBDE",
"3 c #A6BADF",
"4 c #A8BDD8",
"5 c #B5CDD9",
"6 c #B5CCDA",
"7 c #B4CADF",
"8 c #B7CEDC",
"9 c #B8CFDD",
"0 c #B8D1D5",
"q c #BBD4D9",
"w c #B8D0DC",
"e c #B9D1DD",
"r c #BAD2DC",
"t c #B9D0DE",
"y c #BAD1DF",
"u c #BAD2DE",
"i c #BBD3DF",
"p c #BCD4DE",
"a c #BDD5DF",
"s c #B7CEE0",
"d c #B8CFE1",
"f c #B8CEE3",
"g c #BBD2E0",
"h c #B9D0E2",
"j c #BAD1E3",
"k c #BCD3E1",
"l c #BCD3E3",
"z c #BCD4E0",
"x c #BDD4E2",
"c c #BED5E3",
"v c #BFD7E3",
"b c #BBD2E4",
"n c #BBD1E6",
"m c #BAD0E7",
"M c #BCD3E5",
"N c #BED5E5",
"B c #C0D7E9",
"V c #C6E0E1",
"C c #CCE6E3",
"Z c #C9E2E6",
"A c #CBE5E6",
"S c #CDE7E4",
"D c #CCE6E7",
"F c #CEE8E5",
"G c #CAE3EA",
"H c #CBE4E9",
"J c #CCE5E9",
"K c #CDE6EA",
"L c #CDE6EB",
"P c #CEE7EB",
"I c #CBE3ED",
"U c #CCE5EC",
"Y c #CDE6ED",
"T c #CEE7EC",
"R c #CDE5EF",
"E c #CFE9E8",
"W c #CFE9EA",
"Q c #CFE8EC",
"! c #D0E9ED",
"~ c #D1EAEE",
"^ c #D1EAEF",
"/ c #D2EBEF",
"( c #CAE1F1",
") c #CCE3F3",
"_ c #CDE5F1",
"` c #CEE6F0",
"' c #CFE7F1",
"] c #CEE5F3",
"[ c #CDE4F4",
"{ c #D0E7F7",
"} c #D0E8F2",
"| c #D0E8F4",
/* pixels */
"=-b9py9jg9ggg9gg99gggg9909B8p9#22@zihby0yyyyyyyyyyyyyyyyxyyr8N-==-N8pyyjyyyyyyyyyyyyyyyy0ybszz+22+ji8bt0yyyyyyyyyyyyyyyyztyy8z-=",
"<#jlyyx5g9g9gg9gggg99gggpB98fs#o@@7M5tNzyyyyyyyyyyyyyyyy5xyyjj%<--jMyyx5yyyyyyyyyyyyyyyyivy8bs%+@%sb8yvjyyyyyyyyyyyyyyyy7zyjxj--",
"js%ojjipgggd99ggggg99gggd6qp#,{!Q|4$Nq5hyyyyyyyyyyyyyyyypjbbX%sjbs%Xbjypyyyyyyyyyyyyyyyyh5qx@4{QW|4%xq5syyyyyyyyyyyyyyyyizzbX%sb",
"yN%-bj8ydp9pggg999gggg99B99B# !BV_ $Miyjyyyyyyyyyyyyyyyyy8sm%%NyjN%%fj9ryyyyyyyyyyyyyyyyjyyM@ _VV]X+Nyjbyyyyyyyyyyyyyyyyi5sm-%Ny",
"r8jf#>xyB999l9l9gg9gg9gg9Bo>}J!!^QH|$ON5yyyyyyyyyyyyyyyyyN%%bjryr5tb-%Njyyyyyyyyyyyyyyyyyv+-|HQ^}!H]%+ByyyyyyyyyyyyyyyyyyN%%bs8y",
"pijjo#dj9i9p9i9ig9gggg9g9d4>QFB}_ZFQ+4s5yyyyyyyyyyyyyyyybs#XjjyypjxjX#sbyyyyyyyyyyyyyyyy8m-oQFG^]ZFQ+-syyyyyyyyyyyyyyyyyjs%Xbbji",
"5lyylj#<l9l9i9l9gg9999gg,>}BQQ~!IQLQI[%7yyyyyyyyyyyyyyyy4#jjy9l55lyybj#-yyyyyyyyyyyyyyyy7+(IWJQIWQJQI(%7yyyyyyyyyyyyyyyy<%jjyyx5",
"lyyi9M#=9i9i9l9i9gggggg92 }AJ}JEQG^QZ/ 2yyyyyyyyyyyyyyyy-%jryyyxxyyyyb#=yyyyyyyyyyyyyyyj= }ZI|HQWG|YHY =yyyyyyyhyyyyyyyy=-N8ryyx",
"yyyyyyyy=-M9iy9l08f9ilo2QJLLLLLLLLLLLLLL2@ixsbh0zyyi8N-=jyyyyyyyyyyyyyyy+-b9py9j0hbszi+2LLLLLLLLHQIWHQIQ2+zptbt0jyypdb--jyyyyyyy",
"yyyyyyyy<#dli9x5iBi5l8#oJQLLLLLLLLLLLLLLo%7M8tvz5byybj#-yyyyyyyyyyyyyyyy<#jlyyx5zvt8M7%+LLLLLLLLYJQHWIWH+%sM8yvz5xyyMs--yyyyyyyy",
"yyyyyyyyjd%oMMiid5qB#4}!JLLLLLLLLLLLLLLLW{--Mq5spjjjX%8jyyyyyyyyyyyyyyyybs%ojjipf5qN@4{WLLLLLLLLHWIWHQHWQ]4+xq5fpyjjX%8byyyyyyyy",
"yyyyyyyyyN>#fd8rM9iM# !BTLLLLLLLLLLLLLLLV] @Mihzr8sb-%Nyyyyyyyyyyyyyyyyyjx%-bj8yztiM@X_VLLLLLLLLQIQHWIQIV_ -Myjbr9jm%%Nyyyyyyyyy",
"yyyyyyyyr59m->MjiBo-)JT/LLLLLLLLLLLLLLLLQQH]$+NryN%-mjrryyyyyyyyyyyyyyyyr8jf#>xytN+%|H^QLLLLLLLLIWHQIWHQ}/H]%+NiyN--bs8yyyyyyyyy",
"yyyyyyyyilljo#sb8d-oQFA)LLLLLLLLLLLLLLLL^ZFQX4mtb8%Xjjyiyyyyyyyyyyyyyyyypijjo#dj5s4@YFZ`LLLLLLLLQHWIQHWI]ZFYX4f5j8%ojzjpyyyyyyyy",
"yyyyyyyy6xyylj#->&{BQJTTLLLLLLLLLLLLLLLLIQIQI[$$--fbyyx5yyyyyyyyyyyyyyyy5lyylj#<7 |IWHYYLLLLLLLLIQIQIQIQWYHQI]6=<%jjyyl5yyyyyyyy",
"yyyyyyyyl9yi8M#-4X/!U{JQLLLLLLLLLLLLLLLYWH|YH^ 1--btpyyjyyyyyyyyyyyyyyyylyyi9M#=2 }ZY|GWLLLLLLLLWHWHWHWHWG|QZ} ==%jyyyyzyyyyyyyy",
"yyyyyyyy0yM9pi#23#QCJ}UQJYJTJJTJLLLLLLLLWI^HSI@=2+iz8bj0yyyyyyyyyyyyyyyy0jbsii+23%JFH}QWLLLLLLLLQJQJJYYJJY^JFJ#31#yphby0jyyyyyyy",
"yyyyyyyylNy8N7o# <(}JSYYYJYTTYYTLLLLLLLLIQHQ^(7 @%7M8yxzyyyyyyyyyyyyyyyyzvt8M7%+X-(|QZQILLLLLLLLYYJYYQJQYYHJ}(-+#%7N5yxzyyyyyyyy",
"yyyyyyyyd5qx#4{TT(4oJQATJTYJTJJTLLLLLLLL^ZFH@4(QW{4$Nq5syyyyyyyyyyyyyyyys5qx%4{QQ(4%HWZ^LLLLLLLLJYYJJQYJ]SWG#-(!Y{4#xq5fyyyyyyyy",
"yyyyyyyyjyyM#.YVF)o-)YTQTJJTJYTJLLLLLLLLIQY[-X_SV] %MyjzyyyyyyyyyyyyyyyybyiM% _VZQ+-(QQHLLLLLLLLQJQJYJJYJQY]-#QZVY.#Nyjbyyyyyyyy",
"yyyyyyyyrB+-]J!!QQU)-o)CYTJYTTJTLLLLLLLLSI+-[IQL!/Z]-+NyyyyyyyyyyyyyyyyyrN+-]HQ/WWI_4+]SLLLLLLLLJQYJJQJQS]X-_YWH!!H]-+Niyyyyyyyy",
"yyyyyyyy8d-o!EZ]LAFJ=4(TJJTTYJJYLLLLLLLLQ_4+HWZ^]ZFWX4ftyyyyyyyyyyyyyyyytb4+QFZ]]ZWG+4(QLLLLLLLLYJJYYJYJQ(4%H!Z^]HFYX4f5yyyyyyyy",
"yyyyyyyy<>)UJJTJUTJQ})>.TJTJJTTJLLLLLLHY 7B^QHYYIQJQY]%%yyyyyyyyyyyyyyyy-%[IWHQIHQLW](6 LLLLLLLLJYQJQYYJX-(^QZYYYJJQI]6=yyyyyyyy",
"yyyyyyyy1 }JY{J!TU}JSJ#2YTJYTJYTLLLLLLHG3$HSH^IWWH|YZ/X1yyyyyyyjyyyyyyyy1 /HQ|HWWIQLZG==LLLLLLLLYQJYJYJY3%WZH^IWWH|QZ} =yyyyyyyy",
"0yM8xy#1JTJJTJJTTJJTJYTJ2#JCJ}UYQI^HSL 1WIWIWIWIQIWHQHQI2+zzsby008l9zy+2WHYJYJQYYLLLLLLL2%LSZ^IQWI}JFJ%1JQJQYJJYYJJYQJYQ2Xji8b90",
"iBy9M7%oYTTYYTYTJYTJTTJY.>({QSQYQWHL^(7 HQHQHQHQHWIQIWHW+%sb8tNzlBy8bs%+IWYQJQYJLLLLLLLL -(^LLQYYWZY}(-XYJYJJYQJJYQJJYJJo%sb8yBj",
"95qx%<|!TJJTJTYJTYTYJTJTT(4#JQAY]ZWH+4(QQIWHQIWHQHQHWIQIQ|4$Nq5sd5rx%4{QJYJYYJJYLLLLLLLLQ(4+HWZ`]Z!G+4(!QYQJQJQYQJJQYJJYQ{4#xq5d",
"l9yM% !BJYTJTJJTTJJTJYTJSYo-)TTJWQI[-+]SHWIQHWIQIWIWHQHWV_ $byybbyyx% ]VQJQJJYQJLLLLLLLLS_+4_YQLJWW_-+YSJYJYJYYJJYYJYQQJVYX#xyyj",
"jN+%]H!}YJTYTJYTJJTJYJTYJTY)-o)CSY+-[QQHQHQIWHQHWIWIQHQI^QH]-+vyyBX%]H!!YJJYJQJQLLLLLLLLHQY[-+ISZ]+-]YWJJYJJJYJYQYJQYJQY}!H]%+Nj",
"yf-#QFZ]TJJTYTJJTYYTTJJT}AFG#4)TQ(4@GWZ^IWHWIQIWHQHQIWHW_ZFQ+4ftrd1#JFZ]JYQJJYYJLLLLLLLL^ZFG@4(I/(4+IWZ]QJQYQJQJYJYJJQYJ]ZFQ%-sy",
"%>]IQJWYJTTJJTJTTJJTJTTJYYSY})>.O-(^LZQYWIQIWHWIQIWHWIQIQQJQI[---%]IQJQYQJQYYJYYLLLLLLLLYQSY^(7 X%(^WHWYJYYJYJQYQJJQYJJYWQJQI(%7",
"1X/ZY|HWYTJYTJYTJYTJYTJYJY}JCJ#13%IFH^IQHQHWIQHQHWIQHQHWWI|QZ! 11.!SY|HQJYYJJQJQLLLLLLLLQI^ISI 11%JFH^IQYQJQJYJYJYJYJYQHWG|YHY =",
"1X/ZY|HWQIWHQHQILLLLLLLLWI^HSI@=3=HSH^IYLLLLLLLLYJQYJQQY!H|YZ} =2 }ZI^GWLLLLLLLLLLLLLLLLWI^LSL@33%JFH}QWLLLLLLLLLLLLLLLLWG|YZ} 2",
"-%]YQJQIHWIQIWHWLLLLLLLLIQHQ^(7 .$(^WZQYLLLLLLLLJQYJYJJYJQJYI]6+7-^IQLLILLLLLLLLLLLLLLLLYQZL^B7OX-(|QZQILLLLLLLLLLLLLLLLYYHWI| 7",
"8b-+WFZ]QHQHWIQILLLLLLLL^ZFH@4(QQ(4+GWZ^LLLLLLLLYJJYJJYJ]ZFQ+4j8574+QSG_LLLLLLLLLLLLLLLL`ZWH+4(QQ(4%HWZ^LLLLLLLLLLLLLLLL`ZFY@4s5",
"yN+-]Z/!IWIWHQHWLLLLLLLLIQY[-X_SS_+4[YQHLLLLLLLLJYQJQYJQ!!H]-+vytM+-]H^^LLLLLLLLLLLLLLLLLQI[-+ISZQ+-(QQHLLLLLLLLLLLLLLLLQ^H|%+Nt",
"byyM% ]VWIWIQHQILLLLLLLLSI+-[IQLLWY[-+_CLLLLLLLLQYJQJYYJV].#byjjzhuMO _VLLLLLLLLLLLLLLLLSI@-[IQLWWI_4+]SLLLLLLLLLLLLLLLLV_X@Mitz",
"s5qN$4{WHQHQIWHWLLLLLLLLQ_4+HWZ^^ZFG@4[QLLLLLLLLJYYJYQJQQ|4#xq5sf5qz 7]QLLLLLLLLLLLLLLLLQ_7@HFS`]ZWG+4(QLLLLLLLLLLLLLLLLW{4@Nq5f",
"xNy8M7%@QIWHWIQILLLLLLHY 7B^QHYYIQSY^_- LLLLLLLLQJYQJQYJo%7NtyNzivttM7%oLLLLLLLLLLLLLLII 7B|QLQIHQLW](6 LLLLLLLLLLLLLLLL+%7M8tvz",
"0yb8zi+2HWIQHQHWLLLLLLHG3$HSH^IWQI^ISI@3LLLLLLLLJYJJYJJJ2#ip8by00tmhai@2LLLLLLLILLLLLLLG=@HSH^IWWIQLZG==LLLLLLLLLLLLLLLL2+izsbh0",
"yyyyyyyy2 /ZQ|HWQI^HSL 1WIWIWIWILLLLLLLL2@ISHQIQ!G}YS} 1yyyyyyyytyyyyyyy= IZY|HWLYQHSI@3LLLLLLLLYLLLLLLL2%LSZ^IQQH|IZ} =jyyyyyyy",
"yyyyyyyy7%[IQHQYQWHL^(7 HQHQHQHQLLLLLLLL 7(^QLQYJ!JWI]><yyyyyyyyyyyyyyyy7%_IWLQIYLLY^(7+LLLLLLLLLLLLLLLL -(^LLQYIQJWI(+7yyyyyyyy",
"yyyyyyyy5f4+QFZ_]ZWH+4(QQIWHQIWHLLLLLLLLH_4+HWZ^]ZFT#4d8yyyyyyyyyyyyyyyytm-@YFZ^^ZWH@4BWLLLLLLLLLLLLLLLLQ(4+HWZ`^GFQo-m8yyyyyyyy",
"yyyyyyyy5NO$]HQ^WQI[-+]SHWIQHWIQLLLLLLLLVI+-[YQH}!J)#.ByyyyyyyyyyyyyyyyyiN+%]HQ}HQY_-+ICLLLLLLLLLLLLLLLLS_+4_YQL^QH|-+vyyyyyyyyy",
"yyyyyyyyzyjM$ _VSY+-[QQHQHQIWHQHLLLLLLLLLQI[-+_SVY #MyylyyyyyyyyyyyyyyyybjyM  IVS]+-[YQLLLLLLLLLLLLLLLLLHQY[-+ISV_ @Myyjyyyyyyyy",
"yyyyyyyyf5qz$4{QQ(4@GWZ^IWHWIQIWLLLLLLLLYSWH@4(Q!{<#xq59yyyyyyyyyyyyyyyyf5qx=7{QQ(4+HWZ^LLLLLLLLLLLLLLLL^ZFG@4(IQ{4@xq5hyyyyyyyy",
"yyyyyyyyzNttM7%@O-(^LZQYWIQIWHWILLLLLLLLYYZQ_(6 o#7M9yBiyyyyyyyyyyyyyyyyzvt5b7++ 7(^LHYYLLLLLLLLLLLLLLLLYQSY^(7 +%sb8yviyyyyyyyy",
"yyyyyyyj0tbtii@23%IFH^IQHQHWIQHQLLLLLLLYWI^LZG==1#il8M90yyyyyyyyyyyyyyyy0tbhztO11 LSH^IWLLLLLLLLLLLLLLLLQI^ISI 12+zzsby0yyyyyyyy",
"yyyyyyyyN9yyrj-=1.}ZQ|HQWHQHQIWHLLLLLLLLWH|YZ} ===Mti8yzyyyyyyyyyyyyyyyyzhti8b-== ]ZQ|HWILLLLLLLQJQJJYYJQH|YS!.1=-Mtyyyjyyyyyyyy",
"yyyyyyyy5xyyjj%<<%]IWJQYIQIWHWIQLLLLLLLLYWHQI^X7-@hMytx5yyyyyyyyyyyyyyyy5zyszj--7%(IWLQILLLLLLLLYYJYYQJQYQJQI]%--%jMyyp5yyyyyyyy",
"yyyyyyyypybbo%djrf4XQFZ]WHWIQHQHLLLLLLLL]ZFQ+4ftbt%XjMjiyyyyyyyyyyyyyyyyzzMbX%sbts4XQFZ^LLLLLLLLJYYJJQYJ]ZFJ#1drbs%Xbbjiyyyyyyyy",
"yyyyyyyyy8dm%%NyrN+-]H/QIQHQIWIWLLLLLLLL!}H]-+NyjN%-bh8qyyyyyyyyyyyyyyyyy5hb-%NyiN+%[HQ}LLLLLLLLQJQJYJJY!!H]%XByjN%%m8rryyyyyyyy",
"yyyyyyyyyN%%md8rjyyM@ _VWHQHWIWILLLLLLLLV] %zyjby5sb-%NjyyyyyyyyyyyyyyyyjN%-bs8ybjyN@ ]VLLLLLLLLJQYJJQJQV] %xyybr5sm-%Njyyyyyyyy",
"yyyyyyyybs#Xbxiyh5qN-4{WIQIWHQHQLLLLLLLLQ|--Nq5spjbjX#8jyyyyyyyyyyyyyyyyjs%Xbbjps5qx-4|QLLLLLLLLYJJYYJYJQ{4%xr5dpjzjX%sbyyyyyyyy",
"yyyyyyyy--jjy9l5zNy8M7%+WHWIQIWHLLLLLLLL+%7M8tvz5xyybb%-yyyyyyyyyyyyyyyy-%jzyyx5zNy5M7%XLLLLLLLLJYQJQYWI+%sb8yBl5xyyNj#-yyyyyyyy",
"yyyyyyyy-%jyiyyx0ybspz+2IQHQHWIQLLLLLLLL2+izsbt0xyyi8N-=yyyyyyyyyyyyyyyy=-x8yyyx0ybhii+2LLLLLLLLYQJYJYHW2+yz9l80xyti8M%=yyyyyyyy",
"zjtiyj%=jyyyyyyyyyyyyyyy1X/ZY|HWWG|IH/ =8yyyyyyyjyyyyyyy+-M9iyyljyyitb-=yyyyyyyyyyyyyyyy= }ZQ|HWWH|QH/ 1yyyyyyyyyyyyyyyy--b9py9j",
"5zyyjj%<yyyyyyyyyyyyyyyy-%]YQJQIYWLQI]%7shyyyyyyyyyyyyyy--jMy9l55xyyjj--yyyyyyyyyyyyyyyy=6]IQHQJIQHWI[%-yyyyyyyyyyyyyyyy-#jlyyx5",
"pljjo%8jyyyyyyyyyyyyyyyy8b-+WFZ]^ZFW@-h8yyyyyyyyyyyyyyyyjd#XMMiiiybjX%8byyyyyyyyyyyyyyyy5f4XYFZ]]ZFQ+4btyyyyyyyyyyyyyyyyb8#ojlix",
"y5sb--NyyyyyyyyyyyyyyyyyyN+-]Z/!^QH[-+NyyyyyyyyyyyyyyyyyyN%%fd9rr8jb-%NyyyyyyyyyyyyyyyyyiN+-]H/}/QH]-+NryyyyyyyyyyyyyyyyjN%-fj5r",
"yN%%mj9ryyyyyyyyyyyyyyyybyyM% ]VV_X@Mihbyyyyyyyyyyyyyyyyy5db-%MjyN%-bs8yyyyyyyyyyyyyyyyybjyM- _VV_ %Miybyyyyyyyyyyyyyyyyr8jf->Ny",
"b8%Xjjypyyyyyyyyyyyyyyyys5qN$4{WQ{4@xq5fyyyyyyyyyyyyyyyyplxjo#sbj9%ojzjzyyyyyyyyyyyyyyyyf5qx+4]QQ{4%xq5syyyyyyyyyyyyyyyypijjo%sj",
"--sjyyx5yyyyyyyyyyyyyyyyxNy8M7%@+%sM8tvzyyyyyyyyyyyyyyyy5lyyld#-4%jjyyx5yyyyyyyyyyyyyyyyzvy8Ms%++%7M8tvzyyyyyyyyyyyyyyyy5lyyMd#<",
"--bjpyyjyyyyyyyyyyyyyyyy0yb8zi+22+hitbt0yyyyyyyyyyyyyyyylyry9M--=%jyyyyxyyyyyyyyyyyyyyyh0tbtpi%22+iisbj0yyyyyyyyyyyyyyyylyyp9M-=",
"--M9yrylyyyyyyyyyyyyyyyy0tbtih+22+iz8by0yyyyyyyyyyyyyyyyjyypjb--=-Mtpyyjyyyyyyyyyyyyyyyy0ybszz+22+ji8bt0yyyyyyyyyyyyyyyyztyy8z-=",
"-#dlyyl5yyyyyyyyyyyyyyyyzvt8Ms%+@%7M8yNxyyyyyyyyyyyyyyyy5xyyjs--<%jbyyx5yyyyyyyyyyyyyyyyivy8bs%+@%sb8yvjyyyyyyyyyyyyyyyy7zyjxj--",
"bs#ojxlpyyyyyyyyyyyyyyyyf5qx@4{QW{4$Nq5syyyyyyyyyyyyyyyypyjjX%8bbs%Xbjypyyyyyyyyyyyyyyyyh5qx@4{QW|4%xq5syyyyyyyyyyyyyyyyizzbX%sb",
"jM%-bd5yyyyyyyyyyyyyyyyybhiM@X_VV] %Myybyyyyyyyyyyyyyyyyr9jm%%NyjN%%fj9ryyyyyyyyyyyyyyyyjyyM@ _VV]X+Nyjbyyyyyyyyyyyyyyyyi5sm-%Ny",
"r9df%%NyyyyyyyyyyyyyyyyyyN+-[HQ^!/Z]-+NyyyyyyyyyyyyyyyyyyN--bs5yr5tb-%Njyyyyyyyyyyyyyyyyyv+-|HQ^}!H]%+ByyyyyyyyyyyyyyyyyyN%%bs8y",
"iiMMX#djyyyyyyyyyyyyyyyy8h-@WFZ^]ZFW+-b8yyyyyyyyyyyyyyyyj8%ojjlppjxjX#sbyyyyyyyyyyyyyyyy8m-oQFG^]ZFQ+-syyyyyyyyyyyyyyyyyjs%Xbbji",
"5l9yMj--yyyyyyyyyyyyyyhs7%]IQLWYIQJQY]%-yyyyyyyyyyyyyyyy<%jjyyz55lyybj#-yyyyyyyyyyyyyyyy7+(IWJQIWQJQI(%7yyyyyyyyyyyyyyyy<%jjyyx5",
"lyyi9M-+yyyyyyyjyyyyyyy8= /HI|GWWH|YZ/X1yyyyyyyyyyyyyyyj=%jyitjzxyyyyb#=yyyyyyyyyyyyyyyj= }ZI|HQWG|YHY =yyyyyyyhyyyyyyyy=-N8ryyx",
"yyyyyyyy=-N8iyyx0tbszi+2LLLLLLLLQIWHQHQI2+zpsby0xyyiyj%-yyyyyyyyyyyyyyyy+-b9py9j0hbszi+2LLLLLLLLHQIWHQIQ2+zptbt0jyypdb--jyyyyyyy",
"yyyyyyyy-%bbyyx5zvt8M7%+LLLLLLLLHWIQIWHW+%7M8yNz5l9yjj--yyyyyyyyyyyyyyyy<#jlyyx5zvt8M7%+LLLLLLLLYJQHWIWH+%sM8yvz5xyyMs--yyyyyyyy",
"yyyyyyyyj8#Xjbjps5qN--|QLLLLLLLLQHQHWIQIW{4-Nq5hyixbX#sbyyyyyyyyyyyyyyyybs%ojjipf5qN@4{WLLLLLLLLHWIWHQHWQ]4+xq5fpyjjX%8byyyyyyyy",
"yyyyyyyyjN%-bs5ybjyz% ]VLLLLLLLLIWIWHQHWV_ @Myyjr8dm%%Nyyyyyyyyyyyyyyyyyjx%-bj8yztiM@X_VLLLLLLLLQIQHWIQIV_ -Myjbr9jm%%Nyyyyyyyyy",
"yyyyyyyyq8hb-%NjyN+-]H}!LLLLLLLLWIWIQHQIQ/H]-+NryN%%md8yyyyyyyyyyyyyyyyyr8jf#>xytN+%|H^QLLLLLLLLIWHQIWHQ}/H]%+NiyN--bs8yyyyyyyyy",
"yyyyyyyyijMjX%tbtf4+QFZ]LLLLLLLLHQHQIWHW]ZFQX4frjd%obbypyyyyyyyyyyyyyyyypijjo#dj5s4@YFZ`LLLLLLLLQHWIQHWI]ZFYX4f5j8%ojzjpyyyyyyyy",
"yyyyyyyy5xtyMh@-7X^IQHWYLLLLLLLLQIWHWIQIYQJWI]%<<%jjyyx5yyyyyyyyyyyyyyyy5lyylj#<7 |IWHYYLLLLLLLLIQIQIQIQWYHQI]6=<%jjyyl5yyyyyyyy",
"yyyyyyyyzy8itM=== }ZY|HWLLLLLLLLHWIQHQHWQH|QZ}.1=-jryy9Nyyyyyyyyyyyyyyyylyyi9M#=2 }ZY|GWLLLLLLLLWHWHWHWHWG|QZ} ==%jyyyyzyyyyyyyy",
"yyyyyyyy09M8li#1==GZL^IWYLLLLLLLQHQIWHQHQI^HFI%32@iitbt0jyyyyyyyyyyyyyyy0jbsii+23%JFH}QWLLLLLLLLQJQJJYYJJY^JFJ#31#yphby0jyyyyyyy",
"yyyyyyyyiBy9M7#o 6(_QZYYLLLLLLLLIWHWIQIWYQZL^(-O@%7MttNzyyyyyyyyyyyyyyyyzvt8M7%+X-(|QZQILLLLLLLLYYJYYQJQYYHJ}(-+#%7N5yxzyyyyyyyy",
"yyyyyyyy95qx#<{!Q(4@HWSYLLLLLLLLWIQIWHWI^ZWG@4(QQ{4$zq5fyyyyyyyyyyyyyyyys5qx%4{QQ(4%HWZ^LLLLLLLLJYYJJQYJ]SWG#-(!Y{4#xq5fyyyyyyyy",
"yyyyyyyylyyM# YVS_+-[IQLLLLLLLLLHQHWIQHQHQQ[-+YSV_ $MjyzyyyyyyyyyyyyyyyybyiM% _VZQ+-(QQHLLLLLLLLQJQJYJJYJQY]-#QZVY.#Nyjbyyyyyyyy",
"yyyyyyyyyB.#)J!}HQY[-+IVLLLLLLLLQIWHQIWHS]+-[IQW^QH]$ON5yyyyyyyyyyyyyyyyrN+-]HQ/WWI_4+]SLLLLLLLLJQYJJQJQS]X-_YWH!!H]-+Niyyyyyyyy",
"yyyyyyyy8d4#TFZ]^ZWH+4_HLLLLLLLLHWIQHWIQQ(4+HWZ]_ZFQ+4f5yyyyyyyyyyyyyyyytb4+QFZ]]ZWG+4(QLLLLLLLLYJJYYJYJQ(4%H!Z^]HFYX4f5yyyyyyyy",
"yyyyyyyy<>]IWJ!JYQLQ^(7 LLLLLLLLQHQHQHQH 7(^LHWQYQHQI[%7yyyyyyyyyyyyyyyy-%[IWHQIHQLW](6 LLLLLLLLJYQJQYYJX-(^QZYYYJJQI]6=yyyyyyyy",
"yyyyyyyy1 }SY}G!QIQHSI@2LLLLLLLLIWIWIWIW1 LSH^IQWH|QZ/ 2yyyyyyyyyyyyyyyy1 /HQ|HWWIQLZG==LLLLLLLLYQJYJYJY3%WZH^IWWH|QZ} =yyyyyyyy",
"0yb8pi#2JJJYJJYJLLLLLLLL3@ISI^IQWI^HSH$3GHLLLLLLWHQHQIWH2+iz8by008l9zy+2WHYJYJQYYLLLLLLL2%LSZ^IQWI}JFJ%1JQJQYJJYYJJYQJYQ2Xji8b90",
"zNytN7%oJYQJQYJQLLLLLLLL -_^YSQIYYHQ^B7 YHLLLLLLIQIWHWIQ@%7M8yNxlBy8bs%+IWYQJQYJLLLLLLLL -(^LLQYYWZY}(-XYJYJJYQJJYQJJYJJo%sb8yBj",
"s5qx#4|QQJQYJYYJLLLLLLLLQ[4@GFZ^^ZWH+4_QLLLLLLLLWHWIQHQHW{4$Nq5sd5rx%4{QJYJYYJJYLLLLLLLLQ(4+HWZ`]Z!G+4(!QYQJQJQYQJJQYJJYQ{4#xq5d",
"jjyb#.]VJYYJQJYQLLLLLLLLC_+-[YWLLQI[-+ISLLLLLLLLIQHQIWIWV] %Myybbyyx% ]VQJQJJYQJLLLLLLLLS_+4_YQLJWW_-+YSJYJYJYYJJYYJYQQJVYX#xyyj",
"yv+-]H!!QJYQJQYJLLLLLLLLHQY[4+_SS_X-[YQILLLLLLLLWHQHWIWI!/Z]-+NyyBX%]H!!YJJYJQJQLLLLLLLLHQY[-+ISZ]+-]YWJJYJJJYJYQYJQYJQY}!H]%+Nj",
"8j4+QFZ]JYJJYJJYLLLLLLLL^ZWG+4(QQ(4@HFZ^LLLLLLLLIQIWHQHQ]ZFW+-b8rd1#JFZ]JYQJJYYJLLLLLLLL^ZFG@4(I/(4+IWZ]QJQYQJQJYJYJJQYJ]ZFQ%-sy",
"+6]IYJQJYJJYJYQJLLLLLLLLYQZW^($. 7(^QHQILLLLLLLLWHWIQIWHIQJQY]%--%]IQJQYQJQYYJYYLLLLLLLLYQSY^(7 X%(^WHWYJYYJYJQYQJJQYJJYWQJQI(%7",
"= }ZY|H!YQQJYQJYLLLLLLLLYI^HSH=3=@ISH^IWLLLLLLLLIQHQHWIQWH|YZ/X11.!SY|HQJYYJJQJQLLLLLLLLQI^ISI 11%JFH^IQYQJQJYJYJYJYJYQHWG|YHY =",
"1 !ZQ|IWWHQHQIWHQHQIWHQHQI^HFI%31#JFJ]IWJYJQJQYJQJYJYJYJWH|YZ}X12 }ZI^GWLLLLLLLLLLLLLLLLWI^LSL@33%JFH}QWLLLLLLLLLLLLLLLLWG|YZ} 2",
"--[IQJQQIQIWHWIQIWHWIQIWYQZL^(-OX>(}QSQYYJJYYJJYJYQJJQYQYWJQI^>%7-^IQLLILLLLLLLLLLLLLLLLYQZL^B7OX-(|QZQILLLLLLLLLLLLLLLLYYHWI| 7",
"tf4+QFZ_WHWIQHQHWIQIWHWI^ZWG@4(Q!(-#G!ZYQJYJJQQJQYJYJYJY]ZFY+4sy574+QSG_LLLLLLLLLLLLLLLL`ZWH+4(QQ(4%HWZ^LLLLLLLLLLLLLLLL`ZFY@4s5",
"yv+-]HQ^IQHQIWIWHQHWIQHQHQQ[-+YSZY#<(Y!WYYJQYJYYYJQJQJQJ}!H]-+NjtM+-]H^^LLLLLLLLLLLLLLLLLQI[-+ISZQ+-(QQHLLLLLLLLLLLLLLLLQ^H|%+Nt",
"byyb$ _VWHQHWIWIQIWHQIWHS]+-[IQWYQY(-+YSJYYJQYQJQJQJYJQJV] %zyjbzhuMO _VLLLLLLLLLLLLLLLLSI@-[IQLWWI_4+]SLLLLLLLLLLLLLLLLV_X@Mitz",
"s5qN$4|QIQIWHQHQHWIQHWIQQ(4+HWZ]^ZWG#4(QQJJQYJJYYYJYJYJYQ|--Nq5ff5qz 7]QLLLLLLLLLLLLLLLLQ_7@HFS`]ZWG+4(QLLLLLLLLLLLLLLLLW{4@Nq5f",
"zNt8bs%+WHWIQIWHQHQHQHQH 7(^LHWQYQSQ](<XJQYJJYJJJYYJJQQYo%7M5yvzivttM7%oLLLLLLLLLLLLLLII 7B|QLQIHQLW](6 LLLLLLLLLLLLLLLL+%7M8tvz",
"0ybszz+2IQHQHWIQIWIWIWIW1 LSH^IQJY]JFJ%3YJJYQJQYQJQJYJYJ2+ixsb800tmhai@2LLLLLLLILLLLLLLG=@HSH^IWWIQLZG==LLLLLLLLLLLLLLLL2+izsbh0",
"jyyyyyyy1X/ZY|HWWI^HSH$3GHLLLLLLYJQJQYQJ3#YSJ}YYWG|YZ} 18yyyyyyytyyyyyyy= IZY|HWLYQHSI@3LLLLLLLLYLLLLLLL2%LSZ^IQQH|IZ} =jyyyyyyy",
"yyyyyyyy%%]YQJQIYYHQ^B7 YHLLLLLLJYJYYJJY.%(^WJJYYQJJI]6+yyyyyyyyyyyyyyyy7%_IWLQIYLLY^(7+LLLLLLLLLLLLLLLL -(^LLQYIQJWI(+7yyyyyyyy",
"yyyyyyyytf4XWFZ]^ZWH+4_QLLLLLLLLJQJYJYJJ!(4#GWZ^]ZFQ+4j8yyyyyyyyyyyyyyyytm-@YFZ^^ZWH@4BWLLLLLLLLLLLLLLLLQ(4+HWZ`^GFQo-m8yyyyyyyy",
"yyyyyyyyyN+-]Z/!LQI[-+ISLLLLLLLLYJQJQJQYC]X<(YWW/}J]-+NryyyyyyyyyyyyyyyyiN+%]HQ}HQY_-+ICLLLLLLLLLLLLLLLLS_+4_YQL^QH|-+vyyyyyyyyy",
"yyyyyyyyzjyM% ]VS_X-[YQILLLLLLLLQJYYYJYJJYY]-+]ZVY.#byjjyyyyyyyyyyyyyyyybjyM  IVS]+-[YQLLLLLLLLLLLLLLLLLHQY[-+ISV_ @Myyjyyyyyyyy",
"yyyyyyyys5qN$4{WQ(4@HFZ^LLLLLLLLJYJQJQJYYSWI+4(QQ|4-xq5syyyyyyyyyyyyyyyyf5qx=7{QQ(4+HWZ^LLLLLLLLLLLLLLLL^ZFG@4(IQ{4@xq5hyyyyyyyy",
"yyyyyyyyzxy8M7%@ 7(^QHQILLLLLLLLYJJQQYYJYYZW^(-.+%7N8yNzyyyyyyyyyyyyyyyyzvt5b7++ 7(^LHYYLLLLLLLLLLLLLLLLYQSY^(7 +%sb8yviyyyyyyyy",
"yyyyyyyy0jb8zi+2=@ISH^IWLLLLLLLLQJYJYJJYWI^JFY+32#yptby0yyyyyyyyyyyyyyyy0tbhztO11 LSH^IWLLLLLLLLLLLLLLLLQI^ISI 12+zzsby0yyyyyyyy",
"yyyyyyyyjyyptb--1 ^HY|HWYLLLLLLLYJQYJQQY!H|YZ} =--M9yrylyyyyyyyyyyyyyyyyzhti8b-== ]ZQ|HWILLLLLLLQJQJJYYJQH|YS!.1=-Mtyyyjyyyyyyyy",
"yyyyyyyy5xyybf--$$[IQIQILLLLLLLLJQYJYJJYJQJYI]6+-#dlyyl5yyyyyyyyyyyyyyyy5zyszj--7%(IWLQILLLLLLLLYYJYYQJQYQJQI]%--%jMyyp5yyyyyyyy",
"yyyyyyyyiyjjX%8btm4XQFZ^LLLLLLLLYJJYJJYJ]ZFQ+4j8bs#ojxlpyyyyyyyyyyyyyyyyzzMbX%sbts4XQFZ^LLLLLLLLJYYJJQYJ]ZFJ#1drbs%Xbbjiyyyyyyyy",
"yyyyyyyyrrjm-%NyrN+$]HQQLLLLLLLLJYQJQYJQ!!H]-+vyjM%-bd5yyyyyyyyyyyyyyyyyy5hb-%NyiN+%[HQ}LLLLLLLLQJQJYJJY!!H]%XByjN%%m8rryyyyyyyy",
"yyyyyyyyyN%-bs8rzhiM@ ]VLLLLLLLLQYJQJYYJV].#byjjr9df%%NyyyyyyyyyyyyyyyyyjN%-bs8ybjyN@ ]VLLLLLLLLJQYJJQJQV] %xyybr5sm-%Njyyyyyyyy",
"yyyyyyyyj8%Xjjjps5qM--{WLLLLLLLLJYYJYQJQQ|4#xq5siiMMX#djyyyyyyyyyyyyyyyyjs%Xbbjps5qx-4|QLLLLLLLLYJJYYJYJQ{4%xr5dpjzjX%sbyyyyyyyy",
"yyyyyyyy-#jbyyb5zvt8M7%oLLLLLLLLQJYQJQYJo%7NtyNz5l9ylj#<yyyyyyyyyyyyyyyy-%jzyyx5zNy5M7%XLLLLLLLLJYQJQYWI+%sb8yBl5xyyNj#-yyyyyyyy",
"yyyyyyyj=-N8iyyz0hbsxi@2LLLLLLLLJYJJYJJJ2#ip8by0lyyi9M-=yyyyyyyyyyyyyyyy=-x8yyyx0ybhii+2LLLLLLLLYQJYJYHW2+yz9l80xyti8M%=yyyyyyyy",
"xyyyrj%-yyyyyyyyyyyyyyyy2 /ZQ^GQ!G}YS} 1yyyyyyyyyyyyyyyy=-M9pyybjyyitb-=yyyyyyyyyyyyyyyy= }ZQ|HWWH|QH/ 1yyyyyyyyyyyyyyyy--b9py9j",
"5l9yjj#4yyyyyyyyyyyyyyyy7%[IQLQIJ!JWI]><yyyyyyyyyyyyyyyy<#jbyyx55xyyjj--yyyyyyyyyyyyyyyy=6]IQHQJIQHWI[%-yyyyyyyyyyyyyyyy-#jlyyx5",
"yyjjX#sbyyyyyyyyyyyyyyyy5s4+QFZ_]ZFT#4d8yyyyyyyyyyyyyyyyj9%XjjypiybjX%8byyyyyyyyyyyyyyyy5f4XYFZ]]ZFQ+4btyyyyyyyyyyyyyyyyb8#ojlix",
"yrjb%%Nyyyyyyyyyyyyyyyyy5NO$|HQ^}!J)#.ByyyyyyyyyyyyyyyyyjN%%fj9rr8jb-%NyyyyyyyyyyyyyyyyyiN+-]H/}/QH]-+NryyyyyyyyyyyyyyyyjN%-fj5r",
"yN%%ms8yyyyyyyyyyyyyyyyyjyiM$ _VVY #Myylyyyyyyyyyyyyyyyyr8jb--NjyN%-bs8yyyyyyyyyyyyyyyyybjyM- _VV_ %Miybyyyyyyyyyyyyyyyyr8jf->Ny",
"js%Xbbjpyyyyyyyyyyyyyyyyh5qN$4|Q!{<#xq59yyyyyyyyyyyyyyyypjjjo%8bj9%ojzjzyyyyyyyyyyyyyyyyf5qx+4]QQ{4%xq5syyyyyyyyyyyyyyyypijjo%sj",
"<%jjyyx5yyyyyyyyyyyyyyyyzNt5M7@@o#7M9yBiyyyyyyyyyyyyyyyy8jyyxj%-4%jjyyx5yyyyyyyyyyyyyyyyzvy8Ms%++%7M8tvzyyyyyyyyyyyyyyyy5lyyMd#<",
"=-N8ryyxyyyyyyyyyyyyyyyy0ybhiz@21#il8M90yyyyyyyyyyyyyyyyz8ritb-==%jyyyyxyyyyyyyyyyyyyyyh0tbtpi%22+iisbj0yyyyyyyyyyyyyyyylyyp9M-="
};
