/* XPM */
static char *result[] = {
/* columns rows colors chars-per-pixel */
"128 128 14 1 ",
"  c #181818",
". c #882810",
"X c #C82800",
"o c #C87010",
"O c #E06830",
"+ c #C89858",
"@ c #E8A840",
"# c #F8E078",
"$ c #40B080",
"% c #70C0A0",
"& c #808090",
"* c #A0D0C0",
"= c gray80",
"- c #F8F8F8",
/* pixels */
"%%%%%%%%%%%%%%%%%%**%%%%%%%%%%%%%%%%%%%%%%%%%%%%%%**%%%%%%%%%%%%%%%%%%%%%%%%%%%%%%**%%%%%%%%%%%%%%%%%%%%%%%%%%%%%%**%%%%%%%%%%%%",
"%%%%%%%%%%%%%%%%%%%%%%%%****%%%%%%%%%%%%%%%%%%%%%%%%%%%%****%%%%%%%%%%%%%%%%%%%%%%%%%%%%****%%%%%%%%%%%%%%%%%%%%%%%%%%%%****%%%%",
"%%%%%%%%%%%%%%%%%%%%%%%%****%%%%%%%%%%%%%%%%%%%%%%%%%%%%****%%%%%%%%%%%%%%%%%%%%%%%%%%%%****%%%%%%%%%%%%%%%%%%%%%%%%%%%%****%%%%",
"%%%%%%%%%%%%%%%%%%$$%%%%****%%%%%%%%%%%%%%%%%%%%%%$$%%%%****%%%%%%%%%%%%%%%%%%%%%%$$%%%%****%%%%%%%%%%%%%%%%%%%%%%$$%%%%****%%%%",
"%%%%%%%%%%%%%%%%%%$$%%%%****%%%%%%%%%%%%%%%%%%%%%%$$%%%%****%%%%%%%%%%%%%%%%%%%%%%$$%%%%****%%%%%%%%%%%%%%%%%%%%%%$$%%%%****%%%%",
"%%**%%%%$$%%%%%%%%%%%%%%%%%%%%$$%%**%%%%$$%%%%%%%%%%%%%%%%%%%%$$%%**%%%%$$%%%%%%%%%%%%%%%%%%%%$$%%**%%%%$$%%%%%%%%%%%%%%%%%%%%$$",
"%%**%%%%$$%%%%%%%%%%%%%%%%%%%%$$%%**%%%%$$%%%%%%%%%%%%%%%%%%%%$$%%**%%%%$$%%%%%%%%%%%%%%%%%%%%$$%%**%%%%$$%%%%%%%%%%%%%%%%%%%%$$",
"%%%%%%%%%%%%%%%%%%%%%%%%%%%%%%%%%%%%%%%%%%%%%%%%%%%%%%%%%%%%%%%%%%%%%%%%%%%%%%%%%%%%%%%%%%%%%%%%%%%%%%%%%%%%%%%%%%%%%%%%%%%%%%%%",
"%%%%%%%%%%%%%%%%%%%%%%%%%%%%%%%%%%%%%%%%%%%%%%%%%%%%%%%%%%%%%%%%%%%%%%%%%%%%%%%%%%%%%%%%%%%%%%%%%%%%%%%%%%%%%%%%%%%%%%%%%%%%%%%%",
"%%%%%%$$%%%%%%%%%%%%%%$$%%%%%%**%%%%%%$$%%%%%%%%%%%%%%$$%%%%%%**%%%%%%$$%%%%%%%%%%%%%%$$%%%%%%**%%%%%%$$%%%%%%%%%%%%%%$$%%%%%%**",
"%%%%%%$$%%%%%%%%%%%%%%$$%%%%%%**%%%%%%$$%%%%%%%%%%%%%%$$%%%%%%**%%%%%%$$%%%%%%%%%%%%%%$$%%%%%%**%%%%%%$$%%%%%%%%%%%%%%$$%%%%%%**",
"%%%%%%%%%%%%%%$$%%%%****%%%%%%%%%%%%%%%%%%%%%%$$%%%%****%%%%%%%%%%%%%%%%%%%%%%$$%%%%****%%%%%%%%%%%%%%%%%%%%%%$$%%%%****%%%%%%%%",
"%%%%%%%%%%%%%%$$%%%%****%%%%%%%%%%%%%%%%%%%%%%$$%%%%****%%%%%%%%%%%%%%%%%%%%%%$$%%%%****%%%%%%%%%%%%%%%%%%%%%%$$%%%%****%%%%%%%%",
"%%%%%%%%%%%%%%%%%%$$****%%%%%%%%%%%%%%%%%%%%%%%%%%$$****%%%%%%%%%%%%%%%%%%%%%%%%%%$$****%%%%%%%%%%%%%%%%%%%%%%%%%%$$****%%%%%%%%",
"%%%%%%%%%%%%%%%%%%$$****%%%%%%%%%%%%%%%%%%%%%%%%%%$$****%%%%%%%%%%%%%%%%%%%%%%%%%%$$****%%%%%%%%%%%%%%%%%%%%%%%%%%$$****%%%%%%%%",
"%%**%%%%%%%%%%%%%%%%%%%%%%%%%%%%%%**%%%%%%%%%%%%%%%%%%%%%%%%%%%%%%**%%%%%%%%%%%%%%%%%%%%%%%%%%%%%%**%%%%%%%%%%%%%%%%%%%%%%%%%%%%",
"%%**%%%%%%%%%%%%%%%%%%%%%%%%%%%%%%**%%%%%%%%%%%%%%%%%%%%%%%%%%%%%%**%%%%%%%%%%%%%%%%%%%%%%%%%%%%%%**%%%%%%%%%%%%%%%%%%%%%%%%%%%%",
"%%%%%%%%****%%%%%%%%%%%%%%%%%%%%%%%%%%%%****%%%%%%%%%%%%%%%%%%%%%%%%%%%%****%%%%%%%%%%%%%%%%%%%%%%%%%%%%****%%%%%%%%%%%%%%%%%%%%",
"%%%%%%%%****%%%%%%%%%%%%%%%%%%%%%%%%%%%%****%%%%%%%%%%%%%%%%%%%%%%%%%%%%****%%%%%%%%%%%%%%%%%%%%%%%%%%%%****%%%%%%%%%%%%%%%%%%%%",
"%%$$%%%%****%%%%%%%%%%%%%%%%%%%%%%$$%%%%****%%%%%%%%%%%%%%%%%%%%%%$$%%%%****%%%%%%%%%%%%%%%%%%%%%%$$%%%%****%%%%%%%%%%%%%%%%%%%%",
"%%$$%%%%****%%%%%%%%%%%%%%%%%%%%%%$$%%%%****%%%%%%%%%%%%%%%%%%%%%%$$%%%%****%%%%%%%%%%%%%%%%%%%%%%$$%%%%****%%%%%%%%%%%%%%%%%%%%",
"%%%%%%%%%%%%%%$$%%**%%%%$$%%%%%%%%%%%%%%%%%%%%$$%%**%%%%$$%%%%%%%%%%%%%%%%%%%%$$%%**%%%%$$%%%%%%%%%%%%%%%%%%%%$$%%**%%%%$$%%%%%%",
"%%%%%%%%%%%%%%$$%%**%%%%$$%%%%%%%%%%%%%%%%%%%%$$%%**%%%%$$%%%%%%%%%%%%%%%%%%%%$$%%**%%%%$$%%%%%%%%%%%%%%%%%%%%$$%%**%%%%$$%%%%%%",
"%%%%%%%%%%%%%%%%%%%%%%%%%%%%%%%%%%%%%%%%%%%%%%%%%%%%%%%%%%%%%%%%%%%%%%%%%%%%%%%%%%%%%%%%%%%%%%%%%%%%%%%%%%%%%%%%%%%%%%%%%%%%%%%%",
"%%%%%%%%%%%%%%%%%%%%%%%%%%%%%%%%%%%%%%%%%%%%%%%%%%%%%%%%%%%%%%%%%%%%%%%%%%%%%%%%%%%%%%%%%%%%%%%%%%%%%%%%%%%%%%%%%%%%%%%%%%%%%%%%",
"%%%%%%$$%%%%%%**%%%%%%$$%%%%%%%%%%%%%%$$%%%%%%**%%%%%%$$%%%%%%%%%%%%%%$$%%%%%%**%%%%%%$$%%%%%%%%%%%%%%$$%%%%%%**%%%%%%$$%%%%%%%%",
"%%%%%%$$%%%%%%**%%%%%%$$%%%%%%%%%%%%%%$$%%%%%%**%%%%%%$$%%%%%%%%%%%%%%$$%%%%%%**%%%%%%$$%%%%%%%%%%%%%%$$%%%%%%**%%%%%%$$%%%%%%%%",
"%%%%****%%%%%%%%%%%%%%%%%%%%%%$$%%%%****%%%%%%%%%%%%%%%%%%%%%%$$%%%%****%%%%%%%%%%%%%%%%%%%%%%$$%%%%****%%%%%%%%%%%%%%%%%%%%%%$$",
"%%%%****%%%%%%%%%%%%%%%%%%%%%%$$%%%%****%%%%%%%%%%%%%%%%%%%%%%$$%%%%****%%%%%%%%%%%%%%%%%%%%%%$$%%%%****%%%%%%%%%%%%%%%%%%%%%%$$",
"%%$$****%%%%%%%%%%%%%%%%%%%%%%%%%%$$****%%%%%%%%%%%%%%%%%%%%%%%%%%$$****%%%%%%%%%%%%%%%%%%%%%%%%%%$$****%%%%%%%%%%%%%%%%%%%%%%%%",
"%%$$****%%%%%%%%%%%%%%%%%%%%%%%%%%$$****%%%%%%%%%%%%%%%%%%%%%%%%%%$$****%%%%%%%%%%%%%%%%%%%%%%%%%%$$****%%%%%%%%%%%%%%%%%%%%%%%%",
"%%%%%%%%%%%%%%%%%%**%%%%%%%%%%%%%%%%%%%%%%%%%%%%%%**%%%%%%%%%%%%%%%%%%%%%%%%%%%%%%**%%%%%%%%%%%%%%%%%%%%%%%%%%%%%%**%%%%%%%%%%%%",
"%%%%%%%%%%%%%%%%%%**%%%%%%%%%%%%%%%%%%%%%%%%%%%%%%**%%%%%%%%%%%%%%%%%%%%%%%%%%%%%%**%%%%%%%%%%%%%%%%%%%%%%%%%%%%%%**%%%%%%%%%%%%",
"%%%%%%%%%%%%%%%%%%%%%%%%****%%%%%%%%%%%%%%%%%%%%%%%%%%%%****%%%%%%%%%%%%%%%%%%%%%%%%%%%%****%%%%%%%%%%%%%%%%%%%%%%%%%%%%****%%%%",
"%%%%%%%%%%%%%%%%%%%%%%%%****%%%%%%%%%%%%%%%%%%%%%%%%%%%%****%%%%%%%%%%%%%%%%%%%%%%%%%%%%****%%%%%%%%%%%%%%%%%%%%%%%%%%%%****%%%%",
"%%%%%%%%%%%%%%%%%%$$%%%%****%%%%%%%%%%%%%%%%%%%%%%$$%%%%****%%%%%%%%%%%%%%%%%%%%%%$$%%%%****%%%%%%%%%%%%%%%%%%%%%%$$%%%%****%%%%",
"%%%%%%%%%%%%%%%%%%$$%%%%****%%%%%%%%%%%%%%%%%%%%%%$$%%%%****%%%%%%%%%%%%%%%%%%%%%%$$%%%%****%%%%%%%%%%%%%%%%%%%%%%$$%%%%****%%%%",
"%%**%%%%$$%%%%%%%%%%%%%%%%%%%%$$%%**%%%%$$%%%%%%%%%%%%%%%%%%%%====**%%%%$$%%%%%%%%%%%%%%%%%%%%$$%%**%%%%$$%%%%%%%%%%%%%%%%%%%%$$",
"%%**%%%%$$%%%%%%%%%%%%%%%%%%%%$$%%**%%%%$$%%%%%%%%%%%%%%%%%%%%====**%%%%$$%%%%%%%%%%%%%%%%%%%%$$%%**%%%%$$%%%%%%%%%%%%%%%%%%%%$$",
"%%%%%%%%%%%%%%%%%%%%%%%%%%%%%%%%%%%%%%%%%%%%%%%%%%%%%%%%%%%%%%==--&&&&%%%%%%%%%%%%%%%%%%%%%%%%%%%%%%%%%%%%%%%%%%%%%%%%%%%%%%%%%%",
"%%%%%%%%%%%%%%%%%%%%%%%%%%%%%%%%%%%%%%%%%%%%%%%%%%%%%%%%%%%%%%==--&&&&%%%%%%%%%%%%%%%%%%%%%%%%%%%%%%%%%%%%%%%%%%%%%%%%%%%%%%%%%%",
"%%%%%%$$%%%%%%%%%%%%%%$$%%%%%%**%%%%%%$$%%%%%%%%%%%%%%$$%%%%%%==------&&  &&%%%%%%%%%%$$%%%%%%**%%%%%%$$%%%%%%%%%%%%%%$$%%%%%%**",
"%%%%%%$$%%%%%%%%%%%%%%$$%%%%%%**%%%%%%$$%%%%%%%%%%%%%%$$%%%%%%==------&&  &&%%%%%%%%%%$$%%%%%%**%%%%%%$$%%%%%%%%%%%%%%$$%%%%%%**",
"%%%%%%%%%%%%%%$$%%%%****%%%%%%%%%%%%%%%%%%%%%%$$%%%%****%%%%%%%%==--------==&&$$%%%%****%%%%%%%%%%%%%%%%%%%%%%$$%%%%****%%%%%%%%",
"%%%%%%%%%%%%%%$$%%%%****%%%%%%%%%%%%%%%%%%%%%%$$%%%%****%%%%%%%%==--------==&&$$%%%%****%%%%%%%%%%%%%%%%%%%%%%$$%%%%****%%%%%%%%",
"%%%%%%%%%%%%%%%%%%$$****%%%%%%%%%%%%%%%%%%&&&&%%%%$$****%%%%%%%%&&==----====  %%%%$$****%%%%%%%%%%%%%%%%%%%%%%%%%%$$****%%%%%%%%",
"%%%%%%%%%%%%%%%%%%$$****%%%%%%%%%%%%%%%%%%&&&&%%%%$$****%%%%%%%%&&==----====  %%%%$$****%%%%%%%%%%%%%%%%%%%%%%%%%%$$****%%%%%%%%",
"%%**%%%%%%%%%%%%%%%%%%%%%%%%%%%%%%**%%%%&&--==&&%%%%%%%%%%%%%%%%%%&&======&&      %%%%%%%%%%%%%%%%**%%%%%%%%%%%%%%%%%%%%%%%%%%%%",
"%%**%%%%%%%%%%%%%%%%%%%%%%%%%%%%%%**%%%%&&--==&&%%%%%%%%%%%%%%%%%%&&======&&      %%%%%%%%%%%%%%%%**%%%%%%%%%%%%%%%%%%%%%%%%%%%%",
"%%%%%%%%****%%%%%%%%%%%%%%%%%%%%%%%%%%%%==--==&&%%%%%%%%%%%%%%%%%%%%&&&&&&&&..oooo  %%%%%%%%%%%%%%%%%%%%****%%%%%%%%%%%%%%%%%%%%",
"%%%%%%%%****%%%%%%%%%%%%%%%%%%%%%%%%%%%%==--==&&%%%%%%%%%%%%%%%%%%%%&&&&&&&&..oooo  %%%%%%%%%%%%%%%%%%%%****%%%%%%%%%%%%%%%%%%%%",
"%%$$%%%%****%%%%%%%%%%%%%%%%%%%%%%$$%%&&----====&&%%%%%%%%%%%%%%%%$$%%%%**..@@@@oo..  %%%%%%%%%%%%$$%%%%****%%%%%%%%%%%%%%%%%%%%",
"%%$$%%%%****%%%%%%%%%%%%%%%%%%%%%%$$%%&&----====&&%%%%%%%%%%%%%%%%$$%%%%**..@@@@oo..  %%%%%%%%%%%%$$%%%%****%%%%%%%%%%%%%%%%%%%%",
"%%%%%%%%%%%%%%$$%%**%%%%$$%%%%%%%%%%%%==------==&&..    $$%%%%%%%%%%%%%%%%..@@@@..oooo  $$%%%%%%%%%%%%%%%%%%%%$$%%**%%%%$$%%%%%%",
"%%%%%%%%%%%%%%$$%%**%%%%$$%%%%%%%%%%%%==------==&&..    $$%%%%%%%%%%%%%%%%..@@@@..oooo  $$%%%%%%%%%%%%%%%%%%%%$$%%**%%%%$$%%%%%%",
"%%%%%%%%%%%%%%%%%%%%%%%%%%%%%%%%%%%%&&--------====&&oooo..  %%%%%%%%%%%%%%%%....@@@@oooo  %%%%%%%%%%%%%%%%%%%%%%%%%%%%%%%%%%%%%%",
"%%%%%%%%%%%%%%%%%%%%%%%%%%%%%%%%%%%%&&--------====&&oooo..  %%%%%%%%%%%%%%%%....@@@@oooo  %%%%%%%%%%%%%%%%%%%%%%%%%%%%%%%%%%%%%%",
"%%%%%%$$%%%%%%**%%%%%%$$%%%%%%%%%%oo&&--------====&&oooooooo  %%%%%%%%$$%%%%%%..@@@@......%%%%%%%%%%%%$$%%%%%%**%%%%%%$$%%%%%%%%",
"%%%%%%$$%%%%%%**%%%%%%$$%%%%%%%%%%oo&&--------====&&oooooooo  %%%%%%%%$$%%%%%%..@@@@......%%%%%%%%%%%%$$%%%%%%**%%%%%%$$%%%%%%%%",
"%%%%****%%%%%%%%%%%%%%%%%%%%%%$$oo####&&----====&&oo@@@@oooooo  %%%%****%%%%%%..@@..@@@@oo  %%$$%%%%****%%%%%%%%%%%%%%%%%%%%%%$$",
"%%%%****%%%%%%%%%%%%%%%%%%%%%%$$oo####&&----====&&oo@@@@oooooo  %%%%****%%%%%%..@@..@@@@oo  %%$$%%%%****%%%%%%%%%%%%%%%%%%%%%%$$",
"%%$$****%%%%%%%%%%%%%%%%%%%%%%%%@@####@@&&&&&&&&oo@@@@@@@@oooo..%%$$****%%%%%%%%..@@@@@@oooo..%%%%$$****%%%%%%%%%%%%%%%%%%%%%%%%",
"%%$$****%%%%%%%%%%%%%%%%%%%%%%%%@@####@@&&&&&&&&oo@@@@@@@@oooo..%%$$****%%%%%%%%..@@@@@@oooo..%%%%$$****%%%%%%%%%%%%%%%%%%%%%%%%",
"%%%%%%%%%%%%%%%%%%**%%%%%%%%%%@@############@@@@@@@@@@@@@@@@oooo..%%%%%%%%%%%%%%..@@........  %%%%%%%%%%%%%%%%%%%%**%%%%%%%%%%%%",
"%%%%%%%%%%%%%%%%%%**%%%%%%%%%%@@############@@@@@@@@@@@@@@@@oooo..%%%%%%%%%%%%%%..@@........  %%%%%%%%%%%%%%%%%%%%**%%%%%%%%%%%%",
"%%%%%%%%%%%%%%%%%%%%%%%%****%%@@############@@@@@@@@@@@@@@@@oooo  %%%%%%%%%%%%%%%%..@@@@@@@@  %%%%%%%%%%%%%%%%%%%%%%%%%%****%%%%",
"%%%%%%%%%%%%%%%%%%%%%%%%****%%@@############@@@@@@@@@@@@@@@@oooo  %%%%%%%%%%%%%%%%..@@@@@@@@  %%%%%%%%%%%%%%%%%%%%%%%%%%****%%%%",
"%%%%%%%%%%%%%%%%%%$$%%%%****%%oo@@########@@@@@@@@@@@@@@@@@@oooo  ..oo%%%%%%%%%%....oo@@@@oooo..%%%%%%%%%%%%%%%%%%$$%%%%****%%%%",
"%%%%%%%%%%%%%%%%%%$$%%%%****%%oo@@########@@@@@@@@@@@@@@@@@@oooo  ..oo%%%%%%%%%%....oo@@@@oooo..%%%%%%%%%%%%%%%%%%$$%%%%****%%%%",
"%%**%%%%$$%%%%%%%%%%%%%%%%%%%%oo--  @@@@@@@@@@@@@@--  @@@@@@oooo  ####..........@@@@@@....oooo  %%**%%%%$$%%%%%%%%%%%%%%%%%%%%$$",
"%%**%%%%$$%%%%%%%%%%%%%%%%%%%%oo--  @@@@@@@@@@@@@@--  @@@@@@oooo  ####..........@@@@@@....oooo  %%**%%%%$$%%%%%%%%%%%%%%%%%%%%$$",
"%%%%%%%%%%%%%%%%%%%%%%%%%%%%%%oo    @@@@@@@@@@@@@@    @@@@@@oooo  ##@@@@..##@@....@@@@@@@@..oo  %%%%%%%%%%%%%%%%%%%%%%%%%%%%%%%%",
"%%%%%%%%%%%%%%%%%%%%%%%%%%%%%%oo    @@@@@@@@@@@@@@    @@@@@@oooo  ##@@@@..##@@....@@@@@@@@..oo  %%%%%%%%%%%%%%%%%%%%%%%%%%%%%%%%",
"%%%%%%$$%%%%%%%%%%%%%%$$%%%%%%oo@@@@..........@@@@@@@@@@@@oooooo  @@@@@@oo..@@@@oo..@@@@oooo..    %%%%$$%%%%%%%%%%%%%%$$%%%%%%**",
"%%%%%%$$%%%%%%%%%%%%%%$$%%%%%%oo@@@@..........@@@@@@@@@@@@oooooo  @@@@@@oo..@@@@oo..@@@@oooo..    %%%%$$%%%%%%%%%%%%%%$$%%%%%%**",
"%%%%%%%%%%%%%%$$%%%%****%%%%%%oo@@..######OOXX..@@@@@@@@@@oooo....@@@@oooo..@@@@oo..oooooooo  OO  %%%%%%%%%%%%$$%%%%****%%%%%%%%",
"%%%%%%%%%%%%%%$$%%%%****%%%%%%oo@@..######OOXX..@@@@@@@@@@oooo....@@@@oooo..@@@@oo..oooooooo  OO  %%%%%%%%%%%%$$%%%%****%%%%%%%%",
"%%%%%%%%%%%%%%%%%%$$****%%%%%%%%oo..####OOOOXX..@@@@@@@@oooooo  oooooooooo  @@oooooo..oooo##    %%%%%%%%%%%%%%%%%%$$****%%%%%%%%",
"%%%%%%%%%%%%%%%%%%$$****%%%%%%%%oo..####OOOOXX..@@@@@@@@oooooo  oooooooooo  @@oooooo..oooo##    %%%%%%%%%%%%%%%%%%$$****%%%%%%%%",
"%%**%%%%%%%%%%%%%%%%%%%%%%%%%%%%....OOOOXXXXXX..@@@@oooooooo..  oooooooooo  oooooooo  oo++##..%%%%**%%%%%%%%%%%%%%%%%%%%%%%%%%%%",
"%%**%%%%%%%%%%%%%%%%%%%%%%%%%%%%....OOOOXXXXXX..@@@@oooooooo..  oooooooooo  oooooooo  oo++##..%%%%**%%%%%%%%%%%%%%%%%%%%%%%%%%%%",
"%%%%%%%%****%%%%%%%%%%%%%%%%%%%%%%..        ..oooooooooooo..  ++++oooooooo  oooooo++  ++##..%%%%%%%%%%%%****%%%%%%%%%%%%%%%%%%%%",
"%%%%%%%%****%%%%%%%%%%%%%%%%%%%%%%..        ..oooooooooooo..  ++++oooooooo  oooooo++  ++##..%%%%%%%%%%%%****%%%%%%%%%%%%%%%%%%%%",
"%%$$%%%%****%%%%%%%%%%%%%%%%%%%%%%$$....oooooooooooooooo..  ######++++++++  ++++####  ....  %%%%%%$$%%%%****%%%%%%%%%%%%%%%%%%%%",
"%%$$%%%%****%%%%%%%%%%%%%%%%%%%%%%$$....oooooooooooooooo..  ######++++++++  ++++####  ....  %%%%%%$$%%%%****%%%%%%%%%%%%%%%%%%%%",
"%%%%%%%%%%%%%%$$%%**%%%%$$%%%%%%%%%%%%%%..            ..##########....##  ++##....##  OOXX  %%%%%%%%%%%%%%%%%%$$%%**%%%%$$%%%%%%",
"%%%%%%%%%%%%%%$$%%**%%%%$$%%%%%%%%%%%%%%..            ..##########....##  ++##....##  OOXX  %%%%%%%%%%%%%%%%%%$$%%**%%%%$$%%%%%%",
"%%%%%%%%%%%%%%%%%%%%%%%%%%%%%%%%%%%%%%%%%%%%%%%%%%%%..OO..######..OOXX    ##..XXXX..%%    %%%%%%%%%%%%%%%%%%%%%%%%%%%%%%%%%%%%%%",
"%%%%%%%%%%%%%%%%%%%%%%%%%%%%%%%%%%%%%%%%%%%%%%%%%%%%..OO..######..OOXX    ##..XXXX..%%    %%%%%%%%%%%%%%%%%%%%%%%%%%%%%%%%%%%%%%",
"%%%%%%$$%%%%%%**%%%%%%$$%%%%%%%%%%%%%%$$%%%%%%**%%%%  OOOO        XXXX  oo    OOXX  %%$$%%%%%%%%%%%%%%$$%%%%%%**%%%%%%$$%%%%%%%%",
"%%%%%%$$%%%%%%**%%%%%%$$%%%%%%%%%%%%%%$$%%%%%%**%%%%  OOOO        XXXX  oo    OOXX  %%$$%%%%%%%%%%%%%%$$%%%%%%**%%%%%%$$%%%%%%%%",
"%%%%****%%%%%%%%%%%%%%%%%%%%%%$$%%%%****%%%%%%%%%%%%%%    %%%%$$      **%%%%%%    %%%%%%%%%%%%$$%%%%****%%%%%%%%%%%%%%%%%%%%%%$$",
"%%%%****%%%%%%%%%%%%%%%%%%%%%%$$%%%%****%%%%%%%%%%%%%%    %%%%$$      **%%%%%%    %%%%%%%%%%%%$$%%%%****%%%%%%%%%%%%%%%%%%%%%%$$",
"%%$$****%%%%%%%%%%%%%%%%%%%%%%%%%%$$****%%%%%%%%%%%%%%%%%%%%%%%%%%$$****%%%%%%%%%%%%%%%%%%%%%%%%%%$$****%%%%%%%%%%%%%%%%%%%%%%%%",
"%%$$****%%%%%%%%%%%%%%%%%%%%%%%%%%$$****%%%%%%%%%%%%%%%%%%%%%%%%%%$$****%%%%%%%%%%%%%%%%%%%%%%%%%%$$****%%%%%%%%%%%%%%%%%%%%%%%%",
"%%%%%%%%%%%%%%%%%%**%%%%%%%%%%%%%%%%%%%%%%%%%%%%%%**%%%%%%%%%%%%%%%%%%%%%%%%%%%%%%**%%%%%%%%%%%%%%%%%%%%%%%%%%%%%%**%%%%%%%%%%%%",
"%%%%%%%%%%%%%%%%%%**%%%%%%%%%%%%%%%%%%%%%%%%%%%%%%**%%%%%%%%%%%%%%%%%%%%%%%%%%%%%%**%%%%%%%%%%%%%%%%%%%%%%%%%%%%%%**%%%%%%%%%%%%",
"%%%%%%%%%%%%%%%%%%%%%%%%****%%%%%%%%%%%%%%%%%%%%%%%%%%%%****%%%%%%%%%%%%%%%%%%%%%%%%%%%%****%%%%%%%%%%%%%%%%%%%%%%%%%%%%****%%%%",
"%%%%%%%%%%%%%%%%%%%%%%%%****%%%%%%%%%%%%%%%%%%%%%%%%%%%%****%%%%%%%%%%%%%%%%%%%%%%%%%%%%****%%%%%%%%%%%%%%%%%%%%%%%%%%%%****%%%%",
"%%%%%%%%%%%%%%%%%%$$%%%%****%%%%%%%%%%%%%%%%%%%%%%$$%%%%****%%%%%%%%%%%%%%%%%%%%%%$$%%%%****%%%%%%%%%%%%%%%%%%%%%%$$%%%%****%%%%",
"%%%%%%%%%%%%%%%%%%$$%%%%****%%%%%%%%%%%%%%%%%%%%%%$$%%%%****%%%%%%%%%%%%%%%%%%%%%%$$%%%%****%%%%%%%%%%%%%%%%%%%%%%$$%%%%****%%%%",
"%%**%%%%$$%%%%%%%%%%%%%%%%%%%%$$%%**%%%%$$%%%%%%%%%%%%%%%%%%%%$$%%**%%%%$$%%%%%%%%%%%%%%%%%%%%$$%%**%%%%$$%%%%%%%%%%%%%%%%%%%%$$",
"%%**%%%%$$%%%%%%%%%%%%%%%%%%%%$$%%**%%%%$$%%%%%%%%%%%%%%%%%%%%$$%%**%%%%$$%%%%%%%%%%%%%%%%%%%%$$%%**%%%%$$%%%%%%%%%%%%%%%%%%%%$$",
"%%%%%%%%%%%%%%%%%%%%%%%%%%%%%%%%%%%%%%%%%%%%%%%%%%%%%%%%%%%%%%%%%%%%%%%%%%%%%%%%%%%%%%%%%%%%%%%%%%%%%%%%%%%%%%%%%%%%%%%%%%%%%%%%",
"%%%%%%%%%%%%%%%%%%%%%%%%%%%%%%%%%%%%%%%%%%%%%%%%%%%%%%%%%%%%%%%%%%%%%%%%%%%%%%%%%%%%%%%%%%%%%%%%%%%%%%%%%%%%%%%%%%%%%%%%%%%%%%%%",
"%%%%%%$$%%%%%%%%%%%%%%$$%%%%%%**%%%%%%$$%%%%%%%%%%%%%%$$%%%%%%**%%%%%%$$%%%%%%%%%%%%%%$$%%%%%%**%%%%%%$$%%%%%%%%%%%%%%$$%%%%%%**",
"%%%%%%$$%%%%%%%%%%%%%%$$%%%%%%**%%%%%%$$%%%%%%%%%%%%%%$$%%%%%%**%%%%%%$$%%%%%%%%%%%%%%$$%%%%%%**%%%%%%$$%%%%%%%%%%%%%%$$%%%%%%**",
"%%%%%%%%%%%%%%$$%%%%****%%%%%%%%%%%%%%%%%%%%%%$$%%%%****%%%%%%%%%%%%%%%%%%%%%%$$%%%%****%%%%%%%%%%%%%%%%%%%%%%$$%%%%****%%%%%%%%",
"%%%%%%%%%%%%%%$$%%%%****%%%%%%%%%%%%%%%%%%%%%%$$%%%%****%%%%%%%%%%%%%%%%%%%%%%$$%%%%****%%%%%%%%%%%%%%%%%%%%%%$$%%%%****%%%%%%%%",
"%%%%%%%%%%%%%%%%%%$$****%%%%%%%%%%%%%%%%%%%%%%%%%%$$****%%%%%%%%%%%%%%%%%%%%%%%%%%$$****%%%%%%%%%%%%%%%%%%%%%%%%%%$$****%%%%%%%%",
"%%%%%%%%%%%%%%%%%%$$****%%%%%%%%%%%%%%%%%%%%%%%%%%$$****%%%%%%%%%%%%%%%%%%%%%%%%%%$$****%%%%%%%%%%%%%%%%%%%%%%%%%%$$****%%%%%%%%",
"%%**%%%%%%%%%%%%%%%%%%%%%%%%%%%%%%**%%%%%%%%%%%%%%%%%%%%%%%%%%%%%%**%%%%%%%%%%%%%%%%%%%%%%%%%%%%%%**%%%%%%%%%%%%%%%%%%%%%%%%%%%%",
"%%**%%%%%%%%%%%%%%%%%%%%%%%%%%%%%%**%%%%%%%%%%%%%%%%%%%%%%%%%%%%%%**%%%%%%%%%%%%%%%%%%%%%%%%%%%%%%**%%%%%%%%%%%%%%%%%%%%%%%%%%%%",
"%%%%%%%%****%%%%%%%%%%%%%%%%%%%%%%%%%%%%****%%%%%%%%%%%%%%%%%%%%%%%%%%%%****%%%%%%%%%%%%%%%%%%%%%%%%%%%%****%%%%%%%%%%%%%%%%%%%%",
"%%%%%%%%****%%%%%%%%%%%%%%%%%%%%%%%%%%%%****%%%%%%%%%%%%%%%%%%%%%%%%%%%%****%%%%%%%%%%%%%%%%%%%%%%%%%%%%****%%%%%%%%%%%%%%%%%%%%",
"%%$$%%%%****%%%%%%%%%%%%%%%%%%%%%%$$%%%%****%%%%%%%%%%%%%%%%%%%%%%$$%%%%****%%%%%%%%%%%%%%%%%%%%%%$$%%%%****%%%%%%%%%%%%%%%%%%%%",
"%%$$%%%%****%%%%%%%%%%%%%%%%%%%%%%$$%%%%****%%%%%%%%%%%%%%%%%%%%%%$$%%%%****%%%%%%%%%%%%%%%%%%%%%%$$%%%%****%%%%%%%%%%%%%%%%%%%%",
"%%%%%%%%%%%%%%$$%%**%%%%$$%%%%%%%%%%%%%%%%%%%%$$%%**%%%%$$%%%%%%%%%%%%%%%%%%%%$$%%**%%%%$$%%%%%%%%%%%%%%%%%%%%$$%%**%%%%$$%%%%%%",
"%%%%%%%%%%%%%%$$%%**%%%%$$%%%%%%%%%%%%%%%%%%%%$$%%**%%%%$$%%%%%%%%%%%%%%%%%%%%$$%%**%%%%$$%%%%%%%%%%%%%%%%%%%%$$%%**%%%%$$%%%%%%",
"%%%%%%%%%%%%%%%%%%%%%%%%%%%%%%%%%%%%%%%%%%%%%%%%%%%%%%%%%%%%%%%%%%%%%%%%%%%%%%%%%%%%%%%%%%%%%%%%%%%%%%%%%%%%%%%%%%%%%%%%%%%%%%%%",
"%%%%%%%%%%%%%%%%%%%%%%%%%%%%%%%%%%%%%%%%%%%%%%%%%%%%%%%%%%%%%%%%%%%%%%%%%%%%%%%%%%%%%%%%%%%%%%%%%%%%%%%%%%%%%%%%%%%%%%%%%%%%%%%%",
"%%%%%%$$%%%%%%**%%%%%%$$%%%%%%%%%%%%%%$$%%%%%%**%%%%%%$$%%%%%%%%%%%%%%$$%%%%%%**%%%%%%$$%%%%%%%%%%%%%%$$%%%%%%**%%%%%%$$%%%%%%%%",
"%%%%%%$$%%%%%%**%%%%%%$$%%%%%%%%%%%%%%$$%%%%%%**%%%%%%$$%%%%%%%%%%%%%%$$%%%%%%**%%%%%%$$%%%%%%%%%%%%%%$$%%%%%%**%%%%%%$$%%%%%%%%",
"%%%%****%%%%%%%%%%%%%%%%%%%%%%$$%%%%****%%%%%%%%%%%%%%%%%%%%%%$$%%%%****%%%%%%%%%%%%%%%%%%%%%%$$%%%%****%%%%%%%%%%%%%%%%%%%%%%$$",
"%%%%****%%%%%%%%%%%%%%%%%%%%%%$$%%%%****%%%%%%%%%%%%%%%%%%%%%%$$%%%%****%%%%%%%%%%%%%%%%%%%%%%$$%%%%****%%%%%%%%%%%%%%%%%%%%%%$$",
"%%$$****%%%%%%%%%%%%%%%%%%%%%%%%%%$$****%%%%%%%%%%%%%%%%%%%%%%%%%%$$****%%%%%%%%%%%%%%%%%%%%%%%%%%$$****%%%%%%%%%%%%%%%%%%%%%%%%",
"%%$$****%%%%%%%%%%%%%%%%%%%%%%%%%%$$****%%%%%%%%%%%%%%%%%%%%%%%%%%$$****%%%%%%%%%%%%%%%%%%%%%%%%%%$$****%%%%%%%%%%%%%%%%%%%%%%%%",
"%%%%%%%%%%%%%%%%%%**%%%%%%%%%%%%%%%%%%%%%%%%%%%%%%**%%%%%%%%%%%%%%%%%%%%%%%%%%%%%%**%%%%%%%%%%%%%%%%%%%%%%%%%%%%%%**%%%%%%%%%%%%"
};
