/* XPM */
static char *result[] = {
/* columns rows colors chars-per-pixel */
"128 128 16 1 ",
"  c #101010",
". c #585858",
"X c #E80000",
"o c #A06020",
"O c #F86000",
"+ c #F89800",
"@ c #F8E020",
"# c #C08040",
"$ c #F8C050",
"% c #F8E878",
"& c #40B080",
"* c #70C0A0",
"= c gray60",
"- c #F8F0B0",
"; c #A0D0C0",
": c #F8F8F8",
/* pixels */
"******************;;******************************;;******************************;;******************************;;************",
"************************;;;;****************************;;;;****************************;;;;****************************;;;;****",
"************************;;;;****************************;;;;****************************;;;;****************************;;;;****",
"******************&&****;;;;**********************&&****;;;;**********************&&****;;;;**********************&&****;;;;****",
"******************&&****;;;;**********************&&****;;;;**********************&&****;;;;**********************&&****;;;;****",
"**;;****&&********************&&**;;****XXXXXX****************&&**;;****&&XXXXXXXXXXXXXX******&&**;;****&&**XXXX**************&&",
"**;;****&&********************&&**;;****XXXXXX****************&&**;;****&&XXXXXXXXXXXXXX******&&**;;****&&**XXXX**************&&",
"**************************************XXOOOOOOXX**************XXXXXXXX********XXXXOOOOOOXXXXXXXXXX**********XXOOXXXX************",
"**************************************XXOOOOOOXX**************XXXXXXXX********XXXXOOOOOOXXXXXXXXXX**********XXOOXXXX************",
"*XXX**&&**************&&******;;****XXOO@@@@@@OOXX****&&**XXXXOOOOOOOOXXXX********XX++++++++++OOOOXXXXXXXX****XXOO++XX&&******;;",
"*XXX**&&**************&&******;;****XXOO@@@@@@OOXX****&&**XXXXOOOOOOOOXXXX********XX++++++++++OOOOXXXXXXXX****XXOO++XX&&******;;",
"**XXXX********&&****;;;;XX**********XXOOOOOO@@@@@@XXXXXXXXOOOOOOOOOOOOOOOOXXXXXXXXOOOOOO++++@@++@@++OOOOOOXX**XXOO++XX;;********",
"**XXXX********&&****;;;;XX**********XXOOOOOO@@@@@@XXXXXXXXOOOOOOOOOOOOOOOOXXXXXXXXOOOOOO++++@@++@@++OOOOOOXX**XXOO++XX;;********",
"**XXOOXX**********&&;;;;XXXX******XXOOOOOOOOOO@@@@@@++++++++++++@@@@@@@@@@OOOOOOOOOOOOOOOOOO++@@++@@@@++OOOO++OOOO@@OOXX********",
"**XXOOXX**********&&;;;;XXXX******XXOOOOOOOOOO@@@@@@++++++++++++@@@@@@@@@@OOOOOOOOOOOOOOOOOO++@@++@@@@++OOOO++OOOO@@OOXX********",
"**;;OOXX******************XXXX****XXOOOOXXXXOOOO@@@@++++++OOOO@@@@@@@@@@@@@@OO@@@@@@OOOOOOooooOO@@@@@@@@++OOOOOO@@++@@XX**OO****",
"**;;OOXX******************XXXX****XXOOOOXXXXOOOO@@@@++++++OOOO@@@@@@@@@@@@@@OO@@@@@@OOOOOOooooOO@@@@@@@@++OOOOOO@@++@@XX**OO****",
"****OOXX;;;;**************XXOOXXXXOOOOXX;;;;XXOOOOOO@@OOOOOO@@@@++++++++@@@@@@@@@@@@@@@@@@oo::oo      @@@@++OOOO++@@OOXXOOXX****",
"****OOXX;;;;**************XXOOXXXXOOOOXX;;;;XXOOOOOO@@OOOOOO@@@@++++++++@@@@@@@@@@@@@@@@@@oo::oo      @@@@++OOOO++@@OOXXOOXX****",
"**XXOO**;;;;OOOOOO**********XXOOOOOOXX**;;;;XXOOOOOOOOOOOOOOOOOOOOOOOO++++@@@@@@@@@@@@@@@@oo::--  %%%%  @@++OOOO@@++@@OOXXXX****",
"**XXOO**;;;;OOOOOO**********XXOOOOOOXX**;;;;XXOOOOOOOOOOOOOOOOOOOOOOOO++++@@@@@@@@@@@@@@@@oo::--  %%%%  @@++OOOO@@++@@OOXXXX****",
"**XXOOOO******&&OOOOXXXXXX****XXXXXX**********XXOOOOOOOOOOOOOOOOOOOOOOOO@@@@@@@@@@@@@@@@@@@@  ::%%  OO%%  ++OOOO++@@OOOOOOXX****",
"**XXOOOO******&&OOOOXXXXXX****XXXXXX**********XXOOOOOOOOOOOOOOOOOOOOOOOO@@@@@@@@@@@@@@@@@@@@  ::%%  OO%%  ++OOOO++@@OOOOOOXX****",
"**XXOOOOOO******OO@@@@XXOOOO********************XXOOOOOOXXXXXXOOOOOOOOOOOO@@@@@@@@@@@@@@@@@@oo::--%%  OO  XXOOOO@@++    OO******",
"**XXOOOOOO******OO@@@@XXOOOO********************XXOOOOOOXXXXXXOOOOOOOOOOOO@@@@@@@@@@@@@@@@@@oo::--%%  OO  XXOOOO@@++    OO******",
"**XXOO@@@@@@++++++++@@@@@@OOXXXXXXXXXXXX******;;**XXXXXX******XXXXOOOOOOOOOO@@++@@@@@@@@@@@@@@  ::--$$  XXXXOO@@OO  $$  OO******",
"**XXOO@@@@@@++++++++@@@@@@OOXXXXXXXXXXXX******;;**XXXXXX******XXXXOOOOOOOOOO@@++@@@@@@@@@@@@@@  ::--$$  XXXXOO@@OO  $$  OO******",
"****XXOO@@@@@@@@@@@@@@@@@@@@@@@@@@@@@@OOOOXX******************&&**XXOOOOOOOO++@@++@@++@@@@@@++oo::--$$$$  XXOO    XX$$  OOOOXX&&",
"****XXOO@@@@@@@@@@@@@@@@@@@@@@@@@@@@@@OOOOXX******************&&**XXOOOOOOOO++@@++@@++@@@@@@++oo::--$$$$  XXOO    XX$$  OOOOXX&&",
"**&&;;OO++@@@@@@@@@@@@@@@@@@@@@@@@@@@@@@OOOO**********************&&XXOOOOOOOOOO@@++@@++@@++oo%%  ::--$$oo$$OO  XXOO$$  OOXX****",
"**&&;;OO++@@@@@@@@@@@@@@@@@@@@@@@@@@@@@@OOOO**********************&&XXOOOOOOOOOO@@++@@++@@++oo%%  ::--$$oo$$OO  XXOO$$  OOXX****",
"******OOOO++@@@@@@@@@@@@@@@@++++++++@@@@@@@@OOXX**;;****************XXOOOOOOOOOO++@@++@@++oo%%%%oo----$$$$$$  XXOOOO$$  OOXX****",
"******OOOO++@@@@@@@@@@@@@@@@++++++++@@@@@@@@OOXX**;;****************XXOOOOOOOOOO++@@++@@++oo%%%%oo----$$$$$$  XXOOOO$$  OOXX****",
"****XXOOOOOO++++++++@@@@@@++OOOOOOOOOO++++++++OOXX******;;;;XXXXXX****XXXXXXXXXX@@++@@++@@  ----------$$%%%%$$$$OO$$$$  XX;;****",
"****XXOOOOOO++++++++@@@@@@++OOOOOOOOOO++++++++OOXX******;;;;XXXXXX****XXXXXXXXXX@@++@@++@@  ----------$$%%%%$$$$OO$$$$  XX;;****",
"****XXOOOOOOOOOOOOOO++++++++OOOO@@@@OOOOOOOOOOOOOOXXXXXX;;;;****XXXX++++++@@++XXOO@@++@@OO  --------%%%%%%$$$$$$$$$$  OOXX;;****",
"****XXOOOOOOOOOOOOOO++++++++OOOO@@@@OOOOOOOOOOOOOOXXXXXX;;;;****XXXX++++++@@++XXOO@@++@@OO  --------%%%%%%$$$$$$$$$$  OOXX;;****",
"**;;**XXOO++@@@@++OOOOOOOO@@@@@@@@@@@@@@@@@@@@@@OOOOOOOOXXXXXX    ooOOOO@@++@@++XXXXXXOOoooo------$$%%%%$$$$$$$$$$    OOXXXX**&&",
"**;;**XXOO++@@@@++OOOOOOOO@@@@@@@@@@@@@@@@@@@@@@OOOOOOOOXXXXXX    ooOOOO@@++@@++XXXXXXOOoooo------$$%%%%$$$$$$$$$$    OOXXXX**&&",
"****XX++@@@@@@@@@@@@++OOOOOOOO@@@@@@@@@@++++++++OOOOOOOO  oooo------XXOOOO@@OOOO@@@@OOOO  ::----$$--      $$$$$$$$$$  XXXX******",
"****XX++@@@@@@@@@@@@++OOOOOOOO@@@@@@@@@@++++++++OOOOOOOO  oooo------XXOOOO@@OOOO@@@@OOOO  ::----$$--      $$$$$$$$$$  XXXX******",
"**XXXXXX++++++++@@@@@@@@@@++++++++++++++++++++OOOOOOOOoo%%::::::::----XXXXXXXXOOOOOOOO  ::------%%  XXXX::$$$$$$$$$$  XX******;;",
"**XXXXXX++++++++@@@@@@@@@@++++++++++++++++++++OOOOOOOOoo%%::::::::----XXXXXXXXOOOOOOOO  ::------%%  XXXX::$$$$$$$$$$  XX******;;",
"******XXOOOOOOOOOO++@@@@@@@@@@++OOOOOOOOOOOOOOOOOOOOoo%%::::::::::::----------XXOOOO  ::::----%%%%%%XXOOoo$$$$$$$$  XXXX********",
"******XXOOOOOOOOOO++@@@@@@@@@@++OOOOOOOOOOOOOOOOOOOOoo%%::::::::::::----------XXOOOO  ::::----%%%%%%XXOOoo$$$$$$$$  XXXX********",
"******XXOOOOXXOOOOOOOOOOOOOOOOOOOOOOOOOOOOOOOOOOOOoo%%--::::::::::::------------XX  ::::----%%%%%%%%%%%%$$$$$$$$$$  XX;;********",
"******XXOOOOXXOOOOOOOOOOOOOOOOOOOOOOOOOOOOOOOOOOOOoo%%--::::::::::::------------XX  ::::----%%%%%%%%%%%%$$$$$$$$$$  XX;;********",
"**;;****XXXX**XXOOOOOOOOOOOOOOOOOOOOOOOOOOOOOOXX  %%--------::::::::--::----------oo%%----%%%%%%%%%%%%$$$$$$$$$$  **************",
"**;;****XXXX**XXOOOOOOOOOOOOOOOOOOOOOOOOOOOOOOXX  %%--------::::::::--::----------oo%%----%%%%%%%%%%%%$$$$$$$$$$  **************",
"********;;;;**XXOOOOOOOOOOOOOOOOOOOOOOOOOOOOXX**oo%%----------------::::::::------  %%%%%%%%%%%%%%$$$$$$$$$$$$    **************",
"********;;;;**XXOOOOOOOOOOOOOOOOOOOOOOOOOOOOXX**oo%%----------------::::::::------  %%%%%%%%%%%%%%$$$$$$$$$$$$    **************",
"**&&****;;;;****XXOOOOOOOOOOOOXXXXXXOOOOOOXX**  %%%%%%------%%%%%%::::::::--::----oo%%%%  ##$$$$$$$$oo      oo$$  **************",
"**&&****;;;;****XXOOOOOOOOOOOOXXXXXXOOOOOOXX**  %%%%%%------%%%%%%::::::::--::----oo%%%%  ##$$$$$$$$oo      oo$$  **************",
"**************&&**XXXXXXXXXXXX******XXXXXX****oo%%%%%%%%%%%%%%%%%%--::::--::--------oo$$$$$$$$$$oooo%%$$$$$$$$oo**;;****&&******",
"**************&&**XXXXXXXXXXXX******XXXXXX****oo%%%%%%%%%%%%%%%%%%--::::--::--------oo$$$$$$$$$$oooo%%$$$$$$$$oo**;;****&&******",
"********************************************oo%%%%%%%%%%%%%%%%%%%%--::--::--::--------oo        $$--%%$$$$$$$$  ****************",
"********************************************oo%%%%%%%%%%%%%%%%%%%%--::--::--::--------oo        $$--%%$$$$$$$$  ****************",
"******&&******;;******&&**************&&****oo%%%%%%%%%%%%$$$$##%%----::--::--------------------$$--%%$$$$$$$$  ******&&********",
"******&&******;;******&&**************&&****oo%%%%%%%%%%%%$$$$##%%----::--::--------------------$$--%%$$$$$$$$  ******&&********",
"****;;;;**********************&&****;;;;****oo%%%%%%%%%%$$$$##$$%%%%------------------%%%%%%%%%%$$%%%%$$$$$$oo****************&&",
"****;;;;**********************&&****;;;;****oo%%%%%%%%%%$$$$##$$%%%%------------------%%%%%%%%%%$$%%%%$$$$$$oo****************&&",
"**&&;;;;******************OOOOOOOO&&;;;;**oo%%%%%%%%%%$$$$$$  $$$$%%%%--------------%%%%%%%%%%%%%%%%$$$$$$$$  ******************",
"**&&;;;;******************OOOOOOOO&&;;;;**oo%%%%%%%%%%$$$$$$  $$$$%%%%--------------%%%%%%%%%%%%%%%%$$$$$$$$  ******************",
"******************;;****OOXXXX@@@@XXXXXX  %%%%%%%%%%$$$$$$$$  $$$$%%%%%%----------%%%%%%%%%%%%%%%%%%$$$$$$$$  ****;;************",
"******************;;****OOXXXX@@@@XXXXXX  %%%%%%%%%%$$$$$$$$  $$$$%%%%%%----------%%%%%%%%%%%%%%%%%%$$$$$$$$  ****;;************",
"********************OO@@@@@@OOOO@@@@@@  %%%%%%%%%%$$$$$$$$oo  ##$$$$%%%%%%%%%%%%%%%%%%%%%%%%%%%%%%$$$$$$$$oo************;;;;****",
"********************OO@@@@@@OOOO@@@@@@  %%%%%%%%%%$$$$$$$$oo  ##$$$$%%%%%%%%%%%%%%%%%%%%%%%%%%%%%%$$$$$$$$oo************;;;;****",
"******************&&**OOOO@@@@@@@@OO@@  %%%%%%$$$$$$$$$$$$      $$$$$$%%oo%%%%%%%%%%%%%%%%%%%%%%%%%%%%$$$$  ******&&****;;;;****",
"******************&&**OOOO@@@@@@@@OO@@  %%%%%%$$$$$$$$$$$$      $$$$$$%%oo%%%%%%%%%%%%%%%%%%%%%%%%%%%%$$$$  ******&&****;;;;****",
"**;;****&&****************OO@@@@OO@@OO  %%%%oo$$$$$$$$  oo****  ##$$$$oo%%%%%%%%oo    %%%%%%%%%%%%%%%%$$$$  ******************&&",
"**;;****&&****************OO@@@@OO@@OO  %%%%oo$$$$$$$$  oo****  ##$$$$oo%%%%%%%%oo    %%%%%%%%%%%%%%%%$$$$  ******************&&",
"************************OO@@@@@@@@OO@@@@  %%%%oo    oo**********  $$$$  %%%%%%oo%%%%%%oo%%%%%%%%%%%%%%$$oo**********************",
"************************OO@@@@@@@@OO@@@@  %%%%oo    oo**********  $$$$  %%%%%%oo%%%%%%oo%%%%%%%%%%%%%%$$oo**********************",
"******&&**************OO@@@@XXXXOO@@@@@@  %%%%%%  ****&&******;;**  oo%%%%%%oo%%%%%%%%%%oo%%%%%%%%%%%%oo  ************&&******;;",
"******&&**************OO@@@@XXXXOO@@@@@@  %%%%%%  ****&&******;;**  oo%%%%%%oo%%%%%%%%%%oo%%%%%%%%%%%%oo  ************&&******;;",
"**************&&****;;XXXXXX**OOOOOOOOOOOO  %%%%%%  ;;;;******XXXXXX  %%%%%%%%%%%%%%%%%%  $$$$%%%%%%%%    ****&&****;;;;********",
"**************&&****;;XXXXXX**OOOOOOOOOOOO  %%%%%%  ;;;;******XXXXXX  %%%%%%%%%%%%%%%%%%  $$$$%%%%%%%%    ****&&****;;;;********",
"******************&&;;;;****XXOOOOOOOOOOOOoo%%%%%%oo;;;;****XX@@@@@@OOXXXX$$$$$$oo%%%%%%  $$$$$$$$%%oo$$  ********&&;;;;********",
"******************&&;;;;****XXOOOOOOOOOOOOoo%%%%%%oo;;;;****XX@@@@@@OOXXXX$$$$$$oo%%%%%%  $$$$$$$$%%oo$$  ********&&;;;;********",
"**;;**************************XXXXOOOOOOXXXX  $$$$$$oo****XXOOOOOO@@@@OO@@XX$$$$  %%$$$$oo$$$$$$$$$$$$$$oo**********************",
"**;;**************************XXXXOOOOOOXXXX  $$$$$$oo****XXOOOOOO@@@@OO@@XX$$$$  %%$$$$oo$$$$$$$$$$$$$$oo**********************",
"********;;;;********************XXXXXXXXXX;;  oo$$$$$$oo********OO@@OO@@OOOOXX  $$$$$$oo$$$$$$$$$$oo$$  ;;;;********************",
"********;;;;********************XXXXXXXXXX;;  oo$$$$$$oo********OO@@OO@@OOOOXX  $$$$$$oo$$$$$$$$$$oo$$  ;;;;********************",
"**&&****;;;;**********************XXXXXX;;;;  $$$$$$$$  ******XX@@@@@@OOOOOOXX  $$$$$$  $$$$$$  oo$$$$  ;;;;********************",
"**&&****;;;;**********************XXXXXX;;;;  $$$$$$$$  ******XX@@@@@@OOOOOOXX  $$$$$$  $$$$$$  oo$$$$  ;;;;********************",
"**************&&**;;****&&******************    $$$$$$$$oo****XXXXOOOOOOOOOOXX  $$$$        oo$$$$$$$$oo******&&**;;****&&******",
"**************&&**;;****&&******************    $$$$$$$$oo****XXXXOOOOOOOOOOXX  $$$$        oo$$$$$$$$oo******&&**;;****&&******",
"********************************************      $$$$$$  ********XXXXOOOOOO  $$$$$$    $$$$$$$$$$$$  **************************",
"********************************************      $$$$$$  ********XXXXOOOOOO  $$$$$$    $$$$$$$$$$$$  **************************",
"******&&******;;******&&**************&&******        ..  **********XXXX      $$$$oo**  $$$$$$$$$$$$  &&******;;******&&********",
"******&&******;;******&&**************&&******        ..  **********XXXX      $$$$oo**  $$$$$$$$$$$$  &&******;;******&&********",
"****;;;;**********************&&****;;;;******      ==..  ****&&****;;  ....$$$$$$  ****oo%%%%$$$$$$oo;;**********************&&",
"****;;;;**********************&&****;;;;******      ==..  ****&&****;;  ....$$$$$$  ****oo%%%%$$$$$$oo;;**********************&&",
"**&&;;;;**************************&&;;;;********          ********&&;;  ....$$$$$$  ****  %%%%%%$$oo;;;;************************",
"**&&;;;;**************************&&;;;;********          ********&&;;  ....$$$$$$  ****  %%%%%%$$oo;;;;************************",
"******************;;******************************;;******************      $$$$$$  ****  %%%%%%$$  **************;;************",
"******************;;******************************;;******************      $$$$$$  ****  %%%%%%$$  **************;;************",
"************************;;;;****************************;;;;**********      $$$$  OOXX**XXoo%%%%%%  ********************;;;;****",
"************************;;;;****************************;;;;**********      $$$$  OOXX**XXoo%%%%%%  ********************;;;;****",
"******************&&****;;;;**********************&&****;;;;**********          OO@@@@XXOO  %%%%%%  **************&&****;;;;****",
"******************&&****;;;;**********************&&****;;;;**********          OO@@@@XXOO  %%%%%%  **************&&****;;;;****",
"**;;****&&********************&&**;;****&&********************&&**;;****      **OOOO@@@@OO  %%$$##  ****&&********************&&",
"**;;****&&********************&&**;;****&&********************&&**;;****      **OOOO@@@@OO  %%$$##  ****&&********************&&",
"****************************************************************************OOOO@@@@@@@@@@  %%$$##  ****************************",
"****************************************************************************OOOO@@@@@@@@@@  %%$$##  ****************************",
"******&&**************&&******;;******&&**************&&******;;******&&******XXXX@@@@@@OO  $$$$$$  **&&**************&&******;;",
"******&&**************&&******;;******&&**************&&******;;******&&******XXXX@@@@@@OO  $$$$$$  **&&**************&&******;;",
"**************&&****;;;;**********************&&****;;;;**********************&&XXOO@@OO@@  $$$$$$  **********&&****;;;;********",
"**************&&****;;;;**********************&&****;;;;**********************&&XXOO@@OO@@  $$$$$$  **********&&****;;;;********",
"******************&&;;;;**************************&&;;;;**********************XXXXXXOO@@OO  $$$$$$  **************&&;;;;********",
"******************&&;;;;**************************&&;;;;**********************XXXXXXOO@@OO  $$$$$$  **************&&;;;;********",
"**;;******************************;;******************************;;**************XXOOOOOO  $$$$$$  ****************************",
"**;;******************************;;******************************;;**************XXOOOOOO  $$$$$$  ****************************",
"********;;;;****************************;;;;****************************;;;;******XXXXOOOO  $$$$$$$$oo**;;;;********************",
"********;;;;****************************;;;;****************************;;;;******XXXXOOOO  $$$$$$$$oo**;;;;********************",
"**&&****;;;;**********************&&****;;;;**********************&&****;;;;**********XXXX  $$$$$$$$  **;;;;********************",
"**&&****;;;;**********************&&****;;;;**********************&&****;;;;**********XXXX  $$$$$$$$  **;;;;********************",
"**************&&**;;****&&********************&&**;;****&&********************&&**;;****XX$$$$$$      ********&&**;;****&&******",
"**************&&**;;****&&********************&&**;;****&&********************&&**;;****XX$$$$$$      ********&&**;;****&&******",
"****************************************************************************************  $$$$  ..      ************************",
"****************************************************************************************  $$$$  ..      ************************",
"******&&******;;******&&**************&&******;;******&&**************&&******;;******&&  $$  ==....    ******;;******&&********",
"******&&******;;******&&**************&&******;;******&&**************&&******;;******&&  $$  ==....    ******;;******&&********",
"****;;;;**********************&&****;;;;**********************&&****;;;;******************    ==....    **********************&&",
"****;;;;**********************&&****;;;;**********************&&****;;;;******************    ==....    **********************&&",
"**&&;;;;**************************&&;;;;**************************&&;;;;**********************          ************************",
"**&&;;;;**************************&&;;;;**************************&&;;;;**********************          ************************",
"******************;;******************************;;******************************;;******************************;;************"
};
