/* XPM */
static char *result[] = {
/* columns rows colors chars-per-pixel */
"128 128 17 1 ",
"  c #101010",
". c #404058",
"X c #505070",
"o c #902010",
"O c #D05828",
"+ c #F87850",
"@ c #F8C068",
"# c #787898",
"$ c #40B080",
"% c #58B088",
"& c #70C0A0",
"* c #B0B0C0",
"= c #98C8C0",
"- c #A0D0C0",
"; c #C0C0C0",
": c gray88",
"> c #F8F8F8",
/* pixels */
"&&&&&&&&&&&&&&&&&&--&&&&&&&&&&&&&&&&&&&&&&&&&&&&&&--&&&&&&&&&&&&&&&&&&&&&&&&&&&&&&--&&&&&&&&&&&&&&&&&&&&&&&&&&&&&&--&&&&&&&&&&&&",
"&&&&&&&&&&&&&&&&&&&&&&&&----&&&&&&&&&&&&&&&&&&&&&&&&&&&&----&&&&&&&&&&&&&&&&&&&&&&&&&&&&----&&&&&&&&&&&&&&&&&&&&&&&&&&&&----&&&&",
"&&&&&&&&&&&&&&&&&&&&&&&&----&&&&&&&&&&&&&&&&&&&&&&&&&&&&----&&&&&&&&&&&&&&&&&&&&&&&&&&&&----&&&&&&&&&&&&&&&&&&&&&&&&&&&&----&&&&",
"&&&&&&&&&&&&&&&&&&$$&&&&----&&&&&&&&&&&&&&&&&&&&&&$$&&&&----&&&&&&&&&&&&&&&&&&&&&&$$&&&&----&&&&&&&&&&&&&&&&&&&&&&$$&&&&----&&&&",
"&&&&&&&&&&&&&&&&&&$$&&&&----&&&&&&&&&&&&&&&&&&&&&&$$&&&&----&&&&&&&&&&&&&&&&&&&&&&$$&&&&----&&&&&&&&&&&&&&&&&&&&&&$$&&&&----&&&&",
"&&--&&&&$$&&&&&&&&&&&&&&&&&&&&$$&&--&&&&$$&&&&&&&&&&&&&&&&&&&&$$&&--&&&&$$&&&&&&&&&&&&&&&&&&&&$$&&--&&&&$$&&&&&&&&&&&&&&&&&&&&$$",
"&&--&&&&$$&&&&&&&&&&&&&&&&&&&&$$&&--&&&&$$&&&&&&&&&&&&&&&&&&&&$$&&--&&&&$$&&&&&&&&&&&&&&&&&&&&$$&&--&&&&$$&&&&&&&&&&&&&&&&&&&&$$",
"&&&&&&&&&&&&&&&&&&&&&&&&&&&&&&&&&&&&&&&&&&&&&&&&&&&&&&&&&&&&&&&&&&&&&&&&&&&&&&&&&&&&&&&&&&&&&&&&&&&&&&&&&&&&&&&&&&&&&&&&&&&&&&&&",
"&&&&&&&&&&&&&&&&&&&&&&&&&&&&&&&&&&&&&&&&&&&&&&&&&&&&&&&&&&&&&&&&&&&&&&&&&&&&&&&&&&&&&&&&&&&&&&&&&&&&&&&&&&&&&&&&&&&&&&&&&&&&&&&&",
"&&&&&&$$&&&&&&&&&&&&&&$$&&&&&&--&&&&&&$$&&&&&&&&&&&&&&$$&&&&&&--&&&&&&$$&&&&&&&&&&&&&&$$&&&&&&--&&&&&&$$&&&&&&&&&&&&&&$$&&&&&&--",
"&&&&&&$$&&&&&&&&&&&&&&$$&&&&&&--&&&&&&$$&&&&&&&&&&&&&&$$&&&&&&--&&&&&&$$&&&&&&&&&&&&&&$$&&&&&&--&&&&&&$$&&&&&&&&&&&&&&$$&&&&&&--",
"&&&&&&&&&&&&&&$$&&&&----&&&&&&&&&&&&&&&&&&&&&&$$&&&&----&&&&&&&&&&&&&&&&&&&&&&$$&&&&----&&&&&&&&&&&&&&&&&&&&&&$$&&&&----&&&&&&&&",
"&&&&&&&&&&&&&&$$&&&&----&&&&&&&&&&&&&&&&&&&&&&$$&&&&----&&&&&&&&&&&&&&&&&&&&&&$$&&&&----&&&&&&&&&&&&&&&&&&&&&&$$&&&&----&&&&&&&&",
"&&&&&&&&&&&&&&&&&&$$----&&&&&&&&&&&&&&&&&&&&&&&&&&$$----&&&&&&&&&&&&&&&&&&&&&&&&&&$$----&&&&&&&&&&&&&&&&&&&&&&&&&&$$----&&&&&&&&",
"&&&&&&&&&&&&&&&&&&$$----&&&&&&&&&&&&&&&&&&&&&&&&&&$$----&&&&&&&&&&&&&&&&&&&&&&&&&&$$----&&&&&&&&&&&&&&&&&&&&&&&&&&$$----&&&&&&&&",
"&&--&&&&&&&&&&&&&&&&&&&&&&&&&&&&&&--&&&&&&&&&&&&&&&&&&&&&&&&&&&&&&--&&&&&&&&&&&&&&&&&&&&&&&&&&&&&&--&&&&&&&&&&&&&&&&&&&&&&&&&&&&",
"&&--&&&&&&&&&&&&&&&&&&&&&&&&&&&&&&--&&&&&&&&&&&&&&&&&&&&&&&&&&&&&&--&&&&&&&&&&&&&&&&&&&&&&&&&&&&&&--&&&&&&&&&&&&&&&&&&&&&&&&&&&&",
"&&&&&&&&----&&&&&&&&&&&&&&&&&&&&&&&&&&&&----&&&&&&&&&&&&&&&&&&&&&&&&&&&&----&&&&&&&&&&&&&&&&&&&&&&&&&&&&----&&&&&&&&&&&&&&&&&&&&",
"&&&&&&&&----&&&&&&&&&&&&&&&&&&&&&&&&&&&&----&&&&&&&&&&&&&&&&&&&&&&&&&&&&----&&&&&&&&&&&&&&&&&&&&&&&&&&&&----&&&&&&&&&&&&&&&&&&&&",
"&&$$&&&&----&&&&&&&&&&&&&&&&&&&&&&$$&&&&----&&&&&&&&&&&&&&&&&&&&&&$$&&&&----&&&&&&&&&&&&&&&&&&&&&&$$&&&&----&&&&&&&&&&&&&&&&&&&&",
"&&$$&&&&----&&&&&&&&&&&&&&&&&&&&&&$$&&&&----&&&&&&&&&&&&&&&&&&&&&&$$&&&&----&&&&&&&&&&&&&&&&&&&&&&$$&&&&----&&&&&&&&&&&&&&&&&&&&",
"&&&&&&&&&&&&&&$$&&--&&&&$$&&&&&&&&&&&&&&&&&&&&$$&&--&&&&$$&&&&&&&&&&&&&&&&&&&&$$&&--&&&&$$&&&&&&&&&&&&&&&&&&&&$$&&--&&&&$$&&&&&&",
"&&&&&&&&&&&&&&$$&&--&&&&$$&&&&&&&&&&&&&&&&&&&&$$&&--&&&&$$&&&&&&&&&&&&&&&&&&&&$$&&--&&&&$$&&&&&&&&&&&&&&&&&&&&$$&&--&&&&$$&&&&&&",
"&&&&&&&&&&&&&&&&&&&&&&&&&&&&&&&&&&&&&&&&&&&&&&&&&&&&&&&&&&&&&&&&&&&&&&&&&&&&&&&&&&&&&&&&&&&&&&&&&&&&&&&&&&&&&&&&&&&&&&&&&&&&&&&&",
"&&&&&&&&&&&&&&&&&&&&&&&&&&&&&&&&&&&&&&&&&&&&&&&&&&&&&&&&&&&&&&&&&&&&&&&&&&&&&&&&&&&&&&&&&&&&&&&&&&&&&&&&&&&&&&&&&&&&&&&&&&&&&&&&",
"&&&&&&$$&&&&&&--&&&&&&$$&&&&&&&&&&&&&&$$&&&&&&XXXX&&&&$$&&&&&&&&&&&&&&$$&&&&&&--&&&&&&$$&&&&&&&&&&&&&&$$&&&&&&--&&&&&&$$&&&&&&&&",
"&&&&&&$$&&&&&&--&&&&&&$$&&&&&&&&&&&&&&$$&&&&&&XXXX&&&&$$&&&&&&&&&&&&&&$$&&&&&&--&&&&&&$$&&&&&&&&&&&&&&$$&&&&&&--&&&&&&$$&&&&&&&&",
"&&&&----&&&&&&&&&&&&&&&&&&&&&&$$&&&&----&&&&XX##  &&&&&&&&XXXX$$&&&&----&&&&&&&&&&&&&&&&&&&&&&$$&&&&--......    &&&&&&&&&&&&&&$$",
"&&&&----&&&&&&&&&&&&&&&&&&&&&&$$&&&&----&&&&XX##  &&&&&&&&XXXX$$&&&&----&&&&&&&&&&&&&&&&&&&&&&$$&&&&--......    &&&&&&&&&&&&&&$$",
"&&$$----&&&&&&&&&&&&&&&&&&&&&&&&&&$$----&&..##  &&&&&&&&XX##  &&&&$$----&&&&&&&&&&&&&&&&&&&&&&&&......>>>>>>;;....  &&&&&&&&&&&&",
"&&$$----&&&&&&&&&&&&&&&&&&&&&&&&&&$$----&&..##  &&&&&&&&XX##  &&&&$$----&&&&&&&&&&&&&&&&&&&&&&&&......>>>>>>;;....  &&&&&&&&&&&&",
"&&&&&&&&&&&&&&&&&&--&&&&&&&&&&&&&&&&&&&&XX    &&&&--&&XX##    &&&&&&&&&&&&&&&&&&&&--&&&&&&&&....>>>>>>>>>>>>>>;;..  &&&&&&&&&&&&",
"&&&&&&&&&&&&&&&&&&--&&&&&&&&&&&&&&&&&&&&XX    &&&&--&&XX##    &&&&&&&&&&&&&&&&&&&&--&&&&&&&&....>>>>>>>>>>>>>>;;..  &&&&&&&&&&&&",
"&&&&&&&&&&&&&&&&&&&&&&&&----&&&&&&&&&&&&  &&&&&&&&&&&&XX    &&&&&&&&&&&&&&&&&&&&&&&&&&&&....>>>>>>>>>>>>>>>>>>......  &&----&&&&",
"&&&&&&&&&&&&&&&&&&&&&&&&----&&&&&&&&&&&&  &&&&&&&&&&&&XX    &&&&&&&&&&&&&&&&&&&&&&&&&&&&....>>>>>>>>>>>>>>>>>>......  &&----&&&&",
"&&&&&&&&&&##########&&&&----&&&&&&&&&&..&&&&&&&&&&$$XX  ----&&&&&&&&&&&&&&&&&&&&&&$$....>>>>>>>>>>>>>>>>>>..........  &&----&&&&",
"&&&&&&&&&&##########&&&&----&&&&&&&&&&..&&&&&&&&&&$$XX  ----&&&&&&&&&&&&&&&&&&&&&&$$....>>>>>>>>>>>>>>>>>>..........  &&----&&&&",
"&&--&&&&  ##..>>>>>>....&&&&&&$$&&--##  $$&&&&&&&&##  &&&&&&&&$$&&--&&&&$$&&&&&&##..>>>>>>>>>>>>>>>>>>....>>>>>>....  &&&&&&&&$$",
"&&--&&&&  ##..>>>>>>....&&&&&&$$&&--##  $$&&&&&&&&##  &&&&&&&&$$&&--&&&&$$&&&&&&##..>>>>>>>>>>>>>>>>>>....>>>>>>....  &&&&&&&&$$",
"&&&&&&&&  ##>>>>>>>>>>>>....&&&&&&&&  &&&&&&&&&&##  &&&&&&&&&&&&&&&&&&&&&&&&##..>>>>>>>>>>>>>>>>>>....>>>>>>>>>>....  &&&&&&&&&&",
"&&&&&&&&  ##>>>>>>>>>>>>....&&&&&&&&  &&&&&&&&&&##  &&&&&&&&&&&&&&&&&&&&&&&&##..>>>>>>>>>>>>>>>>>>....>>>>>>>>>>....  &&&&&&&&&&",
"&&&&&&$$  ##..>>>>>>>>>>>>>>..--&&##  $$&&&&&&&&  &&&&$$&&&&&&--&&&&&&$$&&..;;>>>>>>::>>>>>>>>....>>>>>>>>>>>>......  $$&&&&&&--",
"&&&&&&$$  ##..>>>>>>>>>>>>>>..--&&##  $$&&&&&&&&  &&&&$$&&&&&&--&&&&&&$$&&..;;>>>>>>::>>>>>>>>....>>>>>>>>>>>>......  $$&&&&&&--",
"&&&&&&&&  ........>>>>>>::>>::##..  &&&&&&&&&&##  &&----&&&&&&&&&&&&&&&&..::::::>>::>>........>>>>>>>>>>>>..........  --&&&&&&&&",
"&&&&&&&&  ........>>>>>>::>>::##..  &&&&&&&&&&##  &&----&&&&&&&&&&&&&&&&..::::::>>::>>........>>>>>>>>>>>>..........  --&&&&&&&&",
"&&&&&&&&&&  ..>>>>....>>>>::>>::::  &&&&&&&&&&  &&$$----&&&&&&&&&&&&&&..::::::>>::..............>>>>>>....>>>>;;..  ----&&&&&&&&",
"&&&&&&&&&&  ..>>>>....>>>>::>>::::  &&&&&&&&&&  &&$$----&&&&&&&&&&&&&&..::::::>>::..............>>>>>>....>>>>;;..  ----&&&&&&&&",
"&&--&&&&&&&&  ..>>::>>....;;::::##  ..&&&&&&##  &&&&&&&&&&&&&&&&&&--..::::::::....::::::>>......>>....>>>>>>>>>>..  &&&&&&&&&&&&",
"&&--&&&&&&&&  ..>>::>>....;;::::##  ..&&&&&&##  &&&&&&&&&&&&&&&&&&--..::::::::....::::::>>......>>....>>>>>>>>>>..  &&&&&&&&&&&&",
"&&&&&&&&----&&  ..>>::::......::##::;;..----  &&&&&&&&&&&&&&&&&&&&..::::::##..::::::::>>::>>......>>>>>>>>>>>>>>..  &&&&&&&&&&&&",
"&&&&&&&&----&&  ..>>::::......::##::;;..----  &&&&&&&&&&&&&&&&&&&&..::::::##..::::::::>>::>>......>>>>>>>>>>>>>>..  &&&&&&&&&&&&",
"&&$$&&&&----&&&&......::..;;::..  ..XXXXXXXX        &&&&&&&&&&&&..::::::..##::::::::>>::>>::..>>>>>>>>>>>>>>;;..  &&&&&&&&&&&&&&",
"&&$$&&&&----&&&&......::..;;::..  ..XXXXXXXX        &&&&&&&&&&&&..::::::..##::::::::>>::>>::..>>>>>>>>>>>>>>;;..  &&&&&&&&&&&&&&",
"&&&&&&&&&&&&&&$$&&  ::....;;::::  XX##****  ########    $$&&&&##;;::::..::::::::::::::>>::..::>>>>>>>>..........  --&&&&$$&&&&&&",
"&&&&&&&&&&&&&&$$&&  ::....;;::::  XX##****  ########    $$&&&&##;;::::..::::::::::::::>>::..::>>>>>>>>..........  --&&&&$$&&&&&&",
"&&&&&&&&&&&&&&&&&&&&  ::::XX....  ******##  ######oooooo..&&&&..::;;..::::::::::::::::....::>>::......>>>>>>;;..  &&&&&&&&&&&&&&",
"&&&&&&&&&&&&&&&&&&&&  ::::XX....  ******##  ######oooooo..&&&&..::;;..::::::::::::::::....::>>::......>>>>>>;;..  &&&&&&&&&&&&&&",
"&&&&&&$$&&&&&&--&&&&&&  ::::ooOOoo..******  ####oo++++++++oo..;;;;..;;::;;::::::::....>>::......>>>>>>>>>>>>    &&&&&&$$&&&&&&&&",
"&&&&&&$$&&&&&&--&&&&&&  ::::ooOOoo..******  ####oo++++++++oo..;;;;..;;::;;::::::::....>>::......>>>>>>>>>>>>    &&&&&&$$&&&&&&&&",
"&&&&----&&&&&&&&&&&&&&&&  oo@@OOoo******######oo@@@@++++++oo..;;..;;::;;::;;::............>>::>>>>>>>>>>>>..  &&&&&&&&&&&&&&&&$$",
"&&&&----&&&&&&&&&&&&&&&&  oo@@OOoo******######oo@@@@++++++oo..;;..;;::;;::;;::............>>::>>>>>>>>>>>>..  &&&&&&&&&&&&&&&&$$",
"&&$$----&&&&&&&&&&&&&&&&&&@@@@OOoo****##**####oo@@@@@@++++OOoo..;;;;;;;;;;....::::::::::>>::>>::>>>>>>......  &&&&&&&&&&&&&&&&&&",
"&&$$----&&&&&&&&&&&&&&&&&&@@@@OOoo****##**####oo@@@@@@++++OOoo..;;;;;;;;;;....::::::::::>>::>>::>>>>>>......  &&&&&&&&&&&&&&&&&&",
"&&&&&&&&&&&&&&&&&&--&&&&oo@@@@OOoo**##**######++@@@@@@++OOOOoo..;;;;;;....::::::::::::>>::................  &&&&&&--&&&&&&&&&&&&",
"&&&&&&&&&&&&&&&&&&--&&&&oo@@@@OOoo**##**######++@@@@@@++OOOOoo..;;;;;;....::::::::::::>>::................  &&&&&&--&&&&&&&&&&&&",
"&&&&&&&&&&&&&&&&&&&&&&&&oo@@@@OOoo##**########++@@@@++++OOOOoo  ;;........................::>>::>>::....  &&&&&&&&&&&&&&----&&&&",
"&&&&&&&&&&&&&&&&&&&&&&&&oo@@@@OOoo##**########++@@@@++++OOOOoo  ;;........................::>>::>>::....  &&&&&&&&&&&&&&----&&&&",
"&&&&&&&&&&&&&&&&&&$$&&&&oo++++OOoo############oo++++++OOOOOOoo  ..;;;;;;;;;;::;;::::::>>::>>::>>>>>>::..  &&&&&&&&$$&&&&----&&&&",
"&&&&&&&&&&&&&&&&&&$$&&&&oo++++OOoo############oo++++++OOOOOOoo  ..;;;;;;;;;;::;;::::::>>::>>::>>>>>>::..  &&&&&&&&$$&&&&----&&&&",
"&&--&&&&$$&&&&&&&&&&&&&&oo++++OO##############ooOOOOOOOOOOOOoo  ..........::;;::::::::::>>::>>::>>::....$$&&&&&&&&&&&&&&&&&&&&$$",
"&&--&&&&$$&&&&&&&&&&&&&&oo++++OO##############ooOOOOOOOOOOOOoo  ..........::;;::::::::::>>::>>::>>::....$$&&&&&&&&&&&&&&&&&&&&$$",
"&&&&&&&&&&&&&&&&&&&&&&&&..OOOO  ##XXXX    ##XXXXooOOOOOOOOOOoo  ;;;;;;;;;;........::::::::::;;;;......&&&&&&&&&&&&&&&&&&&&&&&&&&",
"&&&&&&&&&&&&&&&&&&&&&&&&..OOOO  ##XXXX    ##XXXXooOOOOOOOOOOoo  ;;;;;;;;;;........::::::::::;;;;......&&&&&&&&&&&&&&&&&&&&&&&&&&",
"&&&&&&$$&&&&&&&&&&&&&&$$&&    XX..>>====%%  XXXXXXooOOOOOO  XX    ;;;;;;::;;::::::..................&&$$&&&&&&&&&&&&&&$$&&&&&&--",
"&&&&&&$$&&&&&&&&&&&&&&$$&&    XX..>>====%%  XXXXXXooOOOOOO  XX    ;;;;;;::;;::::::..................&&$$&&&&&&&&&&&&&&$$&&&&&&--",
"&&&&&&&&&&&&&&$$&&&&----&&..XXXX..%%%%%%%%  XXXXXXXX      XX  XXXX  ..;;;;::;;::::::::::::**      &&&&&&&&&&&&$$&&&&----&&&&&&&&",
"&&&&&&&&&&&&&&$$&&&&----&&..XXXX..%%%%%%%%  XXXXXXXX      XX  XXXX  ..;;;;::;;::::::::::::**      &&&&&&&&&&&&$$&&&&----&&&&&&&&",
"&&&&&&&&&&&&&&&&&&$$----&&&&  XXXX>>    >>XXXXXXXXXXXXXXXXXX..XXXXXX      ;;::::::::::      ;;;;  &&&&&&&&&&&&&&&&$$----&&&&&&&&",
"&&&&&&&&&&&&&&&&&&$$----&&&&  XXXX>>    >>XXXXXXXXXXXXXXXXXX..XXXXXX      ;;::::::::::      ;;;;  &&&&&&&&&&&&&&&&$$----&&&&&&&&",
"&&--&&&&&&&&&&&&&&&&&&&&&&&&&&  ..XXXXXXXXXXXXXXXXXXXXXX    ####XXXX  ;;;;            ;;;;;;;;;;  --&&&&&&&&&&&&&&&&&&&&&&&&&&&&",
"&&--&&&&&&&&&&&&&&&&&&&&&&&&&&  ..XXXXXXXXXXXXXXXXXXXXXX    ####XXXX  ;;;;            ;;;;;;;;;;  --&&&&&&&&&&&&&&&&&&&&&&&&&&&&",
"&&&&&&&&----&&&&&&&&&&&&&&&&&&&&      XXXXXXXXXXXXXX    ########XXXX  ..;;;;..;;;;;;;;....::;;  &&&&&&&&----&&&&&&&&&&&&&&&&&&&&",
"&&&&&&&&----&&&&&&&&&&&&&&&&&&&&      XXXXXXXXXXXXXX    ########XXXX  ..;;;;..;;;;;;;;....::;;  &&&&&&&&----&&&&&&&&&&&&&&&&&&&&",
"&&$$&&&&----&&&&&&&&&&&&&&&&&&&&&&$$&&..          ..XXXX....##XXXXXX  &&..;;;;....;;::;;::....  &&$$&&&&----&&&&&&&&&&&&&&&&&&&&",
"&&$$&&&&----&&&&&&&&&&&&&&&&&&&&&&$$&&..          ..XXXX....##XXXXXX  &&..;;;;....;;::;;::....  &&$$&&&&----&&&&&&&&&&&&&&&&&&&&",
"&&&&&&&&&&&&&&$$&&--&&&&$$&&&&&&&&&&&&&&&&....  XXXXXX==%%    XXXXXX  &&&&..;;;;;;....::;;..  &&&&&&&&&&&&&&&&$$&&--&&&&$$&&&&&&",
"&&&&&&&&&&&&&&$$&&--&&&&$$&&&&&&&&&&&&&&&&....  XXXXXX==%%    XXXXXX  &&&&..;;;;;;....::;;..  &&&&&&&&&&&&&&&&$$&&--&&&&$$&&&&&&",
"&&&&&&&&&&&&&&&&&&&&&&&&&&&&&&&&&&&&&&&&&&..%%==  XXXXXX%%==  XXXX  &&&&&&&&....;;;;;;..    &&&&&&&&&&&&&&&&&&&&&&&&&&&&&&&&&&&&",
"&&&&&&&&&&&&&&&&&&&&&&&&&&&&&&&&&&&&&&&&&&..%%==  XXXXXX%%==  XXXX  &&&&&&&&....;;;;;;..    &&&&&&&&&&&&&&&&&&&&&&&&&&&&&&&&&&&&",
"&&&&&&$$&&&&&&--&&&&&&$$&&&&&&&&&&&&&&$$&&&&....%%  XX..==  XX..      $$&&&&&&--        &&&&&&&&&&&&&&$$&&&&&&--&&&&&&$$&&&&&&&&",
"&&&&&&$$&&&&&&--&&&&&&$$&&&&&&&&&&&&&&$$&&&&....%%  XX..==  XX..      $$&&&&&&--        &&&&&&&&&&&&&&$$&&&&&&--&&&&&&$$&&&&&&&&",
"&&&&----&&&&&&&&&&&&&&&&&&&&&&$$&&&&----&&&&&&&&..              ..%%  --&&&&&&&&&&&&&&&&&&&&&&$$&&&&----&&&&&&&&&&&&&&&&&&&&&&$$",
"&&&&----&&&&&&&&&&&&&&&&&&&&&&$$&&&&----&&&&&&&&..              ..%%  --&&&&&&&&&&&&&&&&&&&&&&$$&&&&----&&&&&&&&&&&&&&&&&&&&&&$$",
"&&$$----&&&&&&&&&&&&&&&&&&&&&&&&&&$$----&&&&&&&&&&##====%%  &&..%%%%%%  &&&&&&&&&&&&&&&&&&&&&&&&&&$$----&&&&&&&&&&&&&&&&&&&&&&&&",
"&&$$----&&&&&&&&&&&&&&&&&&&&&&&&&&$$----&&&&&&&&&&##====%%  &&..%%%%%%  &&&&&&&&&&&&&&&&&&&&&&&&&&$$----&&&&&&&&&&&&&&&&&&&&&&&&",
"&&&&&&&&&&&&&&&&&&--&&&&&&&&&&&&&&&&&&&&&&&&&&&&##>>==%%..&&&&##====%%  &&&&&&&&&&--&&&&&&&&&&&&&&&&&&&&&&&&&&&&&&--&&&&&&&&&&&&",
"&&&&&&&&&&&&&&&&&&--&&&&&&&&&&&&&&&&&&&&&&&&&&&&##>>==%%..&&&&##====%%  &&&&&&&&&&--&&&&&&&&&&&&&&&&&&&&&&&&&&&&&&--&&&&&&&&&&&&",
"&&&&&&&&&&&&&&&&&&&&&&&&----&&&&&&&&&&&&&&&&&&##>>====%%  --&&##====%%%%  &&&&&&&&&&&&&&----&&&&&&&&&&&&&&&&&&&&&&&&&&&&----&&&&",
"&&&&&&&&&&&&&&&&&&&&&&&&----&&&&&&&&&&&&&&&&&&##>>====%%  --&&##====%%%%  &&&&&&&&&&&&&&----&&&&&&&&&&&&&&&&&&&&&&&&&&&&----&&&&",
"&&&&&&&&&&&&&&&&&&$$&&&&----&&&&&&&&&&&&&&&&&&##====%%%%  --&&##>>====%%  &&&&&&&&$$&&&&----&&&&&&&&&&&&&&&&&&&&&&$$&&&&----&&&&",
"&&&&&&&&&&&&&&&&&&$$&&&&----&&&&&&&&&&&&&&&&&&##====%%%%  --&&##>>====%%  &&&&&&&&$$&&&&----&&&&&&&&&&&&&&&&&&&&&&$$&&&&----&&&&",
"&&--&&&&$$&&&&&&&&&&&&&&&&&&&&$$&&--&&&&$$&&##======%%  &&&&&&##>>====%%  &&&&&&&&&&&&&&&&&&&&$$&&--&&&&$$&&&&&&&&&&&&&&&&&&&&$$",
"&&--&&&&$$&&&&&&&&&&&&&&&&&&&&$$&&--&&&&$$&&##======%%  &&&&&&##>>====%%  &&&&&&&&&&&&&&&&&&&&$$&&--&&&&$$&&&&&&&&&&&&&&&&&&&&$$",
"&&&&&&&&&&&&&&&&&&&&&&&&&&&&&&&&&&&&&&&&&&&&..====%%%%  &&&&&&..>>====%%  &&&&&&&&&&&&&&&&&&&&&&&&&&&&&&&&&&&&&&&&&&&&&&&&&&&&&&",
"&&&&&&&&&&&&&&&&&&&&&&&&&&&&&&&&&&&&&&&&&&&&..====%%%%  &&&&&&..>>====%%  &&&&&&&&&&&&&&&&&&&&&&&&&&&&&&&&&&&&&&&&&&&&&&&&&&&&&&",
"&&&&&&$$&&&&&&&&&&&&&&$$&&&&&&--&&&&&&$$&&&&..%%%%%%  $$&&&&&&..%%==%%%%..&&&&&&&&&&&&$$&&&&&&--&&&&&&$$&&&&&&&&&&&&&&$$&&&&&&--",
"&&&&&&$$&&&&&&&&&&&&&&$$&&&&&&--&&&&&&$$&&&&..%%%%%%  $$&&&&&&..%%==%%%%..&&&&&&&&&&&&$$&&&&&&--&&&&&&$$&&&&&&&&&&&&&&$$&&&&&&--",
"&&&&&&&&&&&&&&$$&&&&----&&&&&&&&&&&&&&&&&&&&&&      ----&&&&&&&&..%%%%  &&&&&&$$&&&&----&&&&&&&&&&&&&&&&&&&&&&$$&&&&----&&&&&&&&",
"&&&&&&&&&&&&&&$$&&&&----&&&&&&&&&&&&&&&&&&&&&&      ----&&&&&&&&..%%%%  &&&&&&$$&&&&----&&&&&&&&&&&&&&&&&&&&&&$$&&&&----&&&&&&&&",
"&&&&&&&&&&&&&&&&&&$$----&&&&&&&&&&&&&&&&&&&&&&&&&&$$----&&&&&&&&&&    &&&&&&&&&&&&$$----&&&&&&&&&&&&&&&&&&&&&&&&&&$$----&&&&&&&&",
"&&&&&&&&&&&&&&&&&&$$----&&&&&&&&&&&&&&&&&&&&&&&&&&$$----&&&&&&&&&&    &&&&&&&&&&&&$$----&&&&&&&&&&&&&&&&&&&&&&&&&&$$----&&&&&&&&",
"&&--&&&&&&&&&&&&&&&&&&&&&&&&&&&&&&--&&&&&&&&&&&&&&&&&&&&&&&&&&&&&&--&&&&&&&&&&&&&&&&&&&&&&&&&&&&&&--&&&&&&&&&&&&&&&&&&&&&&&&&&&&",
"&&--&&&&&&&&&&&&&&&&&&&&&&&&&&&&&&--&&&&&&&&&&&&&&&&&&&&&&&&&&&&&&--&&&&&&&&&&&&&&&&&&&&&&&&&&&&&&--&&&&&&&&&&&&&&&&&&&&&&&&&&&&",
"&&&&&&&&----&&&&&&&&&&&&&&&&&&&&&&&&&&&&----&&&&&&&&&&&&&&&&&&&&&&&&&&&&----&&&&&&&&&&&&&&&&&&&&&&&&&&&&----&&&&&&&&&&&&&&&&&&&&",
"&&&&&&&&----&&&&&&&&&&&&&&&&&&&&&&&&&&&&----&&&&&&&&&&&&&&&&&&&&&&&&&&&&----&&&&&&&&&&&&&&&&&&&&&&&&&&&&----&&&&&&&&&&&&&&&&&&&&",
"&&$$&&&&----&&&&&&&&&&&&&&&&&&&&&&$$&&&&----&&&&&&&&&&&&&&&&&&&&&&$$&&&&----&&&&&&&&&&&&&&&&&&&&&&$$&&&&----&&&&&&&&&&&&&&&&&&&&",
"&&$$&&&&----&&&&&&&&&&&&&&&&&&&&&&$$&&&&----&&&&&&&&&&&&&&&&&&&&&&$$&&&&----&&&&&&&&&&&&&&&&&&&&&&$$&&&&----&&&&&&&&&&&&&&&&&&&&",
"&&&&&&&&&&&&&&$$&&--&&&&$$&&&&&&&&&&&&&&&&&&&&$$&&--&&&&$$&&&&&&&&&&&&&&&&&&&&$$&&--&&&&$$&&&&&&&&&&&&&&&&&&&&$$&&--&&&&$$&&&&&&",
"&&&&&&&&&&&&&&$$&&--&&&&$$&&&&&&&&&&&&&&&&&&&&$$&&--&&&&$$&&&&&&&&&&&&&&&&&&&&$$&&--&&&&$$&&&&&&&&&&&&&&&&&&&&$$&&--&&&&$$&&&&&&",
"&&&&&&&&&&&&&&&&&&&&&&&&&&&&&&&&&&&&&&&&&&&&&&&&&&&&&&&&&&&&&&&&&&&&&&&&&&&&&&&&&&&&&&&&&&&&&&&&&&&&&&&&&&&&&&&&&&&&&&&&&&&&&&&&",
"&&&&&&&&&&&&&&&&&&&&&&&&&&&&&&&&&&&&&&&&&&&&&&&&&&&&&&&&&&&&&&&&&&&&&&&&&&&&&&&&&&&&&&&&&&&&&&&&&&&&&&&&&&&&&&&&&&&&&&&&&&&&&&&&",
"&&&&&&$$&&&&&&--&&&&&&$$&&&&&&&&&&&&&&$$&&&&&&--&&&&&&$$&&&&&&&&&&&&&&$$&&&&&&--&&&&&&$$&&&&&&&&&&&&&&$$&&&&&&--&&&&&&$$&&&&&&&&",
"&&&&&&$$&&&&&&--&&&&&&$$&&&&&&&&&&&&&&$$&&&&&&--&&&&&&$$&&&&&&&&&&&&&&$$&&&&&&--&&&&&&$$&&&&&&&&&&&&&&$$&&&&&&--&&&&&&$$&&&&&&&&",
"&&&&----&&&&&&&&&&&&&&&&&&&&&&$$&&&&----&&&&&&&&&&&&&&&&&&&&&&$$&&&&----&&&&&&&&&&&&&&&&&&&&&&$$&&&&----&&&&&&&&&&&&&&&&&&&&&&$$",
"&&&&----&&&&&&&&&&&&&&&&&&&&&&$$&&&&----&&&&&&&&&&&&&&&&&&&&&&$$&&&&----&&&&&&&&&&&&&&&&&&&&&&$$&&&&----&&&&&&&&&&&&&&&&&&&&&&$$",
"&&$$----&&&&&&&&&&&&&&&&&&&&&&&&&&$$----&&&&&&&&&&&&&&&&&&&&&&&&&&$$----&&&&&&&&&&&&&&&&&&&&&&&&&&$$----&&&&&&&&&&&&&&&&&&&&&&&&",
"&&$$----&&&&&&&&&&&&&&&&&&&&&&&&&&$$----&&&&&&&&&&&&&&&&&&&&&&&&&&$$----&&&&&&&&&&&&&&&&&&&&&&&&&&$$----&&&&&&&&&&&&&&&&&&&&&&&&",
"&&&&&&&&&&&&&&&&&&--&&&&&&&&&&&&&&&&&&&&&&&&&&&&&&--&&&&&&&&&&&&&&&&&&&&&&&&&&&&&&--&&&&&&&&&&&&&&&&&&&&&&&&&&&&&&--&&&&&&&&&&&&"
};
