/* XPM */
static char *result[] = {
/* columns rows colors chars-per-pixel */
"128 128 17 1 ",
"  c #101010",
". c #506028",
"X c #B03000",
"o c #D85810",
"O c #E87830",
"+ c #70A830",
"@ c #E0A858",
"# c #98D048",
"$ c #B8F870",
"% c #F8C060",
"& c #F8D068",
"* c #40B080",
"= c #70C0A0",
"- c #808080",
"; c #F8E098",
": c #A0D0C0",
"> c #F8F8F8",
/* pixels */
"==================::==============================::==============================::==============================::============",
"========================::::============================::::============================::::============================::::====",
"========================::::============================::::============================::::============================::::====",
"==================**====::::======================**====::::======================**====::::======================**====::::====",
"==================**====::::======================**====::::======================**====::::======================**====::::====",
"==::====**====================**==::====**====================**==::====**====================**==::====**====================**",
"==::====**====================**==::====**====================**==::====**====================**==::====**====================**",
"================================================================================================================================",
"================================================================================================================================",
"======**==============**======::======**==============**======::======**==============**======::======**==============**======::",
"======**==============**======::======**==============**======::======**==============**======::======**==============**======::",
"==============**====::::======================**====::::======================**====::::======================**====::::========",
"==============**====::::======================**====::::======================**====::::======================**====::::========",
"==================**::::==========================**::::==========================**::::==========================**::::========",
"==================**::::==========================**::::==========================**::::==========================**::::========",
"==::==============================::==============================::==============================::============================",
"==::==============================::==============================::==============================::============================",
"========::::============================::::============================::::============================::::====================",
"========::::============================::::============================::::============================::::====================",
"==**====::::======================**====::::======================**====::::======================**====::::====================",
"==**====::::======================**====::::======================**====::::======================**====::::====================",
"==============**==::====**====================**==::====**====================**==::====**====================**==::====**======",
"==============**==::====**====================**==::====**====================**==::====**====================**==::====**======",
"================================================================================================================================",
"================================================================================================================================",
"======**======::======**==============**======::======**==============**======::======**==============**======::======**========",
"======**======::======**==============**======::======**==============**======::======**==============**======::======**========",
"====::::======================**====::::======================**====::::======================**====::::======================**",
"====::::======================**====::::======================**====::::======================**====::::======================**",
"==**::::==========================**::::==========================**::::==========================**::::========================",
"==**::::==========================**::::==========================**::::==========================**::::========================",
"==================::==============================::==XXXX========================::==============================::============",
"==================::==============================::==XXXX========================::==============================::============",
"========================::::========================XX%%%%XX==================XXXX======::::============================::::====",
"========================::::========================XX%%%%XX==================XXXX======::::============================::::====",
"==================**====::::======================**XXOO%%%%XX============XXXX%%%%XX====::::======================**====::::====",
"==================**====::::======================**XXOO%%%%XX============XXXX%%%%XX====::::======================**====::::====",
"==::====**====================**==::====**==========XXooOO%%%%XX==++..XXXX%%%%OOoo  ==========**==::====**====================**",
"==::====**====================**==::====**==========XXooOO%%%%XX==++..XXXX%%%%OOoo  ==========**==::====**====================**",
"======================================================XXXXOO%%%%XXXXOO%%%%OOoo    ..============================================",
"======================================================XXXXOO%%%%XXXXOO%%%%OOoo    ..============================================",
"======**==============**======::======**==============**..  ooOO%%%%%%oo      ######..**======::======**==============**======::",
"======**==============**======::======**==============**..  ooOO%%%%%%oo      ######..**======::======**==============**======::",
"==============**====::::======================**====::++..$$  OOOOOOoo  ++############  ======================**====::::========",
"==============**====::::======================**====::++..$$  OOOOOOoo  ++############  ======================**====::::========",
"==================**::::==========================**::  ;;..$$XXOOoo  ++####........##++  ========================**::::========",
"==================**::::==========================**::  ;;..$$XXOOoo  ++####........##++  ========================**::::========",
"==::==============================::================  --&&..$$XXOOoo  ++++..;;;;;;;;..++  ========::============================",
"==::==============================::================  --&&..$$XXOOoo  ++++..;;;;;;;;..++  ========::============================",
"========::::============================::::========    &&..$$$$    ++++..;;@@--  @@;;..++..============::::====================",
"========::::============================::::========    &&..$$$$    ++++..;;@@--  @@;;..++..============::::====================",
"==**====::::======================**====::::======..  &&..$$$$##########..&&----    ;;..++  ======**====::::====================",
"==**====::::======================**====::::======..  &&..$$$$##########..&&----    ;;..++  ======**====::::====================",
"==============**==::====**====================**==..&&..################..;;        ;;..++  ==================**==::====**======",
"==============**==::====**====================**==..&&..################..;;        ;;..++  ==================**==::====**======",
"==================================================....####....    ++####..;;@@    @@;;..++  ====================================",
"==================================================....####....    ++####..;;@@    @@;;..++  ====================================",
"======**======::======**==============**======::====..##..$$$$$$++  ++####..;;;;;;;;..++++  ==========**======::======**========",
"======**======::======**==============**======::====..##..$$$$$$++  ++####..;;;;;;;;..++++  ==========**======::======**========",
"====::::======================**====::::============..++++$$$$####++..++####........++++++  ==**====::::======================**",
"====::::======================**====::::============..++++$$$$####++..++####........++++++  ==**====::::======================**",
"==**::::==========================**::::==============..##......##++  ++++++++++++++++++++..======**::::========================",
"==**::::==========================**::::==============..##......##++  ++++++++++++++++++++..======**::::========================",
"==================::====================XXXX======::==....$$$$##..++++  ++++++++++++++++  ========================::============",
"==================::====================XXXX======::==....$$$$##..++++  ++++++++++++++++  ========================::============",
"========================::::==========XX>>&&XX==========..$$####..++++  ..++++++++++++++  ::============================::::====",
"========================::::==========XX>>&&XX==========..$$####..++++  ..++++++++++++++  ::============================::::====",
"==================**====::::==========XX>>&&@@  ==**====..++++++..++  ;;;;..++++++++    ::::======================**====::::====",
"==================**====::::==========XX>>&&@@  ==**====..++++++..++  ;;;;..++++++++    ::::======================**====::::====",
"==::====**====================**==::==XX>>&&@@  ======OO>>..        XXXXXX;;..      ....======**==::====**====================**",
"==::====**====================**==::==XX>>&&@@  ======OO>>..        XXXXXX;;..      ....======**==::====**====================**",
"======================================XX&&&&@@  ======OO;;;;XX;;&&;;XX>>&&  ##++++++..  ========================================",
"======================================XX&&&&@@  ======OO;;;;XX;;&&;;XX>>&&  ##++++++..  ========================================",
"======**==============**======::======XX&&@@  ========**XXXX;;;;;;;;XX;;@@  ####$$$$++  ======::======**==============**======::",
"======**==============**======::======XX&&@@  ========**XXXX;;;;;;;;XX;;@@  ####$$$$++  ======::======**==============**======::",
"==============**====::::================XX@@  **====::::==OOOOOOXXXXXX    ######$$++$$  ======================**====::::========",
"==============**====::::================XX@@  **====::::==OOOOOOXXXXXX    ######$$++$$  ======================**====::::========",
"==================**::::================XX@@  ====**::::OOXX;;;;;;@@XXXX....##++++$$  ::==========================**::::========",
"==================**::::================XX@@  ====**::::OOXX;;;;;;@@XXXX....##++++$$  ::==========================**::::========",
"==::==============================::======XXXX..======OO>>XX;;;;@@XX>>;;  ##..  ++++  ============::============================",
"==::==============================::======XXXX..======OO>>XX;;;;@@XX>>;;  ##..  ++++  ============::============================",
"========::::============================::..##..======ooooooXXXXXXXX;;@@  ##++++    ====================::::====================",
"========::::============================::..##..======ooooooXXXXXXXX;;@@  ##++++    ====================::::====================",
"==**====::::======================**====::..####..XXXXoo;;;;@@@@@@XX    ##++++$$  ================**====::::====================",
"==**====::::======================**====::..####..XXXXoo;;;;@@@@@@XX    ##++++$$  ================**====::::====================",
"==============**==::====**================..######..@@@@XXXX@@@@........++++$$++  ::====**====================**==::====**======",
"==============**==::====**================..######..@@@@XXXX@@@@........++++$$++  ::====**====================**==::====**======",
"============================================..######....@@@@XX....++++  ++++$$  ================================================",
"============================================..######....@@@@XX....++++  ++++$$  ================================================",
"======**======::======**==============**====  ++####++++........++++$$++      ::======**==============**======::======**========",
"======**======::======**==============**====  ++####++++........++++$$++      ::======**==============**======::======**========",
"====::::======================**====::::======  ++++$$..  ++++++  $$++$$  ====================**====::::======================**",
"====::::======================**====::::======  ++++$$..  ++++++  $$++$$  ====================**====::::======================**",
"==**::::==========================**::::========    ....++$$$$++        ==========================**::::========================",
"==**::::==========================**::::========    ....++$$$$++        ==========================**::::========================",
"==================::==============================::..          ==================::==============================::============",
"==================::==============================::..          ==================::==============================::============",
"========================::::============================::::============================::::============================::::====",
"========================::::============================::::============================::::============================::::====",
"==================**====::::======================**====::::======================**====::::======================**====::::====",
"==================**====::::======================**====::::======================**====::::======================**====::::====",
"==::====**====================**==::====**====================**==::====**====================**==::====**====================**",
"==::====**====================**==::====**====================**==::====**====================**==::====**====================**",
"================================================================================================================================",
"================================================================================================================================",
"======**==============**======::======**==============**======::======**==============**======::======**==============**======::",
"======**==============**======::======**==============**======::======**==============**======::======**==============**======::",
"==============**====::::======================**====::::======================**====::::======================**====::::========",
"==============**====::::======================**====::::======================**====::::======================**====::::========",
"==================**::::==========================**::::==========================**::::==========================**::::========",
"==================**::::==========================**::::==========================**::::==========================**::::========",
"==::==============================::==============================::==============================::============================",
"==::==============================::==============================::==============================::============================",
"========::::============================::::============================::::============================::::====================",
"========::::============================::::============================::::============================::::====================",
"==**====::::======================**====::::======================**====::::======================**====::::====================",
"==**====::::======================**====::::======================**====::::======================**====::::====================",
"==============**==::====**====================**==::====**====================**==::====**====================**==::====**======",
"==============**==::====**====================**==::====**====================**==::====**====================**==::====**======",
"================================================================================================================================",
"================================================================================================================================",
"======**======::======**==============**======::======**==============**======::======**==============**======::======**========",
"======**======::======**==============**======::======**==============**======::======**==============**======::======**========",
"====::::======================**====::::======================**====::::======================**====::::======================**",
"====::::======================**====::::======================**====::::======================**====::::======================**",
"==**::::==========================**::::==========================**::::==========================**::::========================",
"==**::::==========================**::::==========================**::::==========================**::::========================",
"==================::==============================::==============================::==============================::============"
};
