/* XPM */
static char *result[] = {
/* columns rows colors chars-per-pixel */
"128 128 3 1 ",
"  c #40B080",
". c #70C0A0",
"X c #A0D0C0",
/* pixels */
"..................XX..............................XX..............................XX..............................XX............",
"........................XXXX............................XXXX............................XXXX............................XXXX....",
"........................XXXX............................XXXX............................XXXX............................XXXX....",
"..................  ....XXXX......................  ....XXXX......................  ....XXXX......................  ....XXXX....",
"..................  ....XXXX......................  ....XXXX......................  ....XXXX......................  ....XXXX....",
"..XX....  ....................  ..XX....  ....................  ..XX....  ....................  ..XX....  ....................  ",
"..XX....  ....................  ..XX....  ....................  ..XX....  ....................  ..XX....  ....................  ",
"................................................................................................................................",
"................................................................................................................................",
"......  ..............  ......XX......  ..............  ......XX......  ..............  ......XX......  ..............  ......XX",
"......  ..............  ......XX......  ..............  ......XX......  ..............  ......XX......  ..............  ......XX",
"..............  ....XXXX......................  ....XXXX......................  ....XXXX......................  ....XXXX........",
"..............  ....XXXX......................  ....XXXX......................  ....XXXX......................  ....XXXX........",
"..................  XXXX..........................  XXXX..........................  XXXX..........................  XXXX........",
"..................  XXXX..........................  XXXX..........................  XXXX..........................  XXXX........",
"..XX..............................XX..............................XX..............................XX............................",
"..XX..............................XX..............................XX..............................XX............................",
"........XXXX............................XXXX............................XXXX............................XXXX....................",
"........XXXX............................XXXX............................XXXX............................XXXX....................",
"..  ....XXXX......................  ....XXXX......................  ....XXXX......................  ....XXXX....................",
"..  ....XXXX......................  ....XXXX......................  ....XXXX......................  ....XXXX....................",
"..............  ..XX....  ....................  ..XX....  ....................  ..XX....  ....................  ..XX....  ......",
"..............  ..XX....  ....................  ..XX....  ....................  ..XX....  ....................  ..XX....  ......",
"................................................................................................................................",
"................................................................................................................................",
"......  ......XX......  ..............  ......XX......  ..............  ......XX......  ..............  ......XX......  ........",
"......  ......XX......  ..............  ......XX......  ..............  ......XX......  ..............  ......XX......  ........",
"....XXXX......................  ....XXXX......................  ....XXXX......................  ....XXXX......................  ",
"....XXXX......................  ....XXXX......................  ....XXXX......................  ....XXXX......................  ",
"..  XXXX..........................  XXXX..........................  XXXX..........................  XXXX........................",
"..  XXXX..........................  XXXX..........................  XXXX..........................  XXXX........................",
"..................XX..............................XX..............................XX..............................XX............",
"..................XX..............................XX..............................XX..............................XX............",
"........................XXXX............................XXXX............................XXXX............................XXXX....",
"........................XXXX............................XXXX............................XXXX............................XXXX....",
"..................  ....XXXX......................  ....XXXX......................  ....XXXX......................  ....XXXX....",
"..................  ....XXXX......................  ....XXXX......................  ....XXXX......................  ....XXXX....",
"..XX....  ....................  ..XX....  ....................  ..XX....  ....................  ..XX....  ....................  ",
"..XX....  ....................  ..XX....  ....................  ..XX....  ....................  ..XX....  ....................  ",
"................................................................................................................................",
"................................................................................................................................",
"......  ..............  ......XX......  ..............  ......XX......  ..............  ......XX......  ..............  ......XX",
"......  ..............  ......XX......  ..............  ......XX......  ..............  ......XX......  ..............  ......XX",
"..............  ....XXXX......................  ....XXXX......................  ....XXXX......................  ....XXXX........",
"..............  ....XXXX......................  ....XXXX......................  ....XXXX......................  ....XXXX........",
"..................  XXXX..........................  XXXX..........................  XXXX..........................  XXXX........",
"..................  XXXX..........................  XXXX..........................  XXXX..........................  XXXX........",
"..XX..............................XX..............................XX..............................XX............................",
"..XX..............................XX..............................XX..............................XX............................",
"........XXXX............................XXXX............................XXXX............................XXXX....................",
"........XXXX............................XXXX............................XXXX............................XXXX....................",
"..  ....XXXX......................  ....XXXX......................  ....XXXX......................  ....XXXX....................",
"..  ....XXXX......................  ....XXXX......................  ....XXXX......................  ....XXXX....................",
"..............  ..XX....  ....................  ..XX....  ....................  ..XX....  ....................  ..XX....  ......",
"..............  ..XX....  ....................  ..XX....  ....................  ..XX....  ....................  ..XX....  ......",
"................................................................................................................................",
"................................................................................................................................",
"......  ......XX......  ..............  ......XX......  ..............  ......XX......  ..............  ......XX......  ........",
"......  ......XX......  ..............  ......XX......  ..............  ......XX......  ..............  ......XX......  ........",
"....XXXX......................  ....XXXX......................  ....XXXX......................  ....XXXX......................  ",
"....XXXX......................  ....XXXX......................  ....XXXX......................  ....XXXX......................  ",
"..  XXXX..........................  XXXX..........................  XXXX..........................  XXXX........................",
"..  XXXX..........................  XXXX..........................  XXXX..........................  XXXX........................",
"..................XX..............................XX..............................XX..............................XX............",
"..................XX..............................XX..............................XX..............................XX............",
"........................XXXX............................XXXX............................XXXX............................XXXX....",
"........................XXXX............................XXXX............................XXXX............................XXXX....",
"..................  ....XXXX......................  ....XXXX......................  ....XXXX......................  ....XXXX....",
"..................  ....XXXX......................  ....XXXX......................  ....XXXX......................  ....XXXX....",
"..XX....  ....................  ..XX....  ....................  ..XX....  ....................  ..XX....  ....................  ",
"..XX....  ....................  ..XX....  ....................  ..XX....  ....................  ..XX....  ....................  ",
"................................................................................................................................",
"................................................................................................................................",
"......  ..............  ......XX......  ..............  ......XX......  ..............  ......XX......  ..............  ......XX",
"......  ..............  ......XX......  ..............  ......XX......  ..............  ......XX......  ..............  ......XX",
"..............  ....XXXX......................  ....XXXX......................  ....XXXX......................  ....XXXX........",
"..............  ....XXXX......................  ....XXXX......................  ....XXXX......................  ....XXXX........",
"..................  XXXX..........................  XXXX..........................  XXXX..........................  XXXX........",
"..................  XXXX..........................  XXXX..........................  XXXX..........................  XXXX........",
"..XX..............................XX..............................XX..............................XX............................",
"..XX..............................XX..............................XX..............................XX............................",
"........XXXX............................XXXX............................XXXX............................XXXX....................",
"........XXXX............................XXXX............................XXXX............................XXXX....................",
"..  ....XXXX......................  ....XXXX......................  ....XXXX......................  ....XXXX....................",
"..  ....XXXX......................  ....XXXX......................  ....XXXX......................  ....XXXX....................",
"..............  ..XX....  ....................  ..XX....  ....................  ..XX....  ....................  ..XX....  ......",
"..............  ..XX....  ....................  ..XX....  ....................  ..XX....  ....................  ..XX....  ......",
"................................................................................................................................",
"................................................................................................................................",
"......  ......XX......  ..............  ......XX......  ..............  ......XX......  ..............  ......XX......  ........",
"......  ......XX......  ..............  ......XX......  ..............  ......XX......  ..............  ......XX......  ........",
"....XXXX......................  ....XXXX......................  ....XXXX......................  ....XXXX......................  ",
"....XXXX......................  ....XXXX......................  ....XXXX......................  ....XXXX......................  ",
"..  XXXX..........................  XXXX..........................  XXXX..........................  XXXX........................",
"..  XXXX..........................  XXXX..........................  XXXX..........................  XXXX........................",
"..................XX..............................XX..............................XX..............................XX............",
"..................XX..............................XX..............................XX..............................XX............",
"........................XXXX............................XXXX............................XXXX............................XXXX....",
"........................XXXX............................XXXX............................XXXX............................XXXX....",
"..................  ....XXXX......................  ....XXXX......................  ....XXXX......................  ....XXXX....",
"..................  ....XXXX......................  ....XXXX......................  ....XXXX......................  ....XXXX....",
"..XX....  ....................  ..XX....  ....................  ..XX....  ....................  ..XX....  ....................  ",
"..XX....  ....................  ..XX....  ....................  ..XX....  ....................  ..XX....  ....................  ",
"................................................................................................................................",
"................................................................................................................................",
"......  ..............  ......XX......  ..............  ......XX......  ..............  ......XX......  ..............  ......XX",
"......  ..............  ......XX......  ..............  ......XX......  ..............  ......XX......  ..............  ......XX",
"..............  ....XXXX......................  ....XXXX......................  ....XXXX......................  ....XXXX........",
"..............  ....XXXX......................  ....XXXX......................  ....XXXX......................  ....XXXX........",
"..................  XXXX..........................  XXXX..........................  XXXX..........................  XXXX........",
"..................  XXXX..........................  XXXX..........................  XXXX..........................  XXXX........",
"..XX..............................XX..............................XX..............................XX............................",
"..XX..............................XX..............................XX..............................XX............................",
"........XXXX............................XXXX............................XXXX............................XXXX....................",
"........XXXX............................XXXX............................XXXX............................XXXX....................",
"..  ....XXXX......................  ....XXXX......................  ....XXXX......................  ....XXXX....................",
"..  ....XXXX......................  ....XXXX......................  ....XXXX......................  ....XXXX....................",
"..............  ..XX....  ....................  ..XX....  ....................  ..XX....  ....................  ..XX....  ......",
"..............  ..XX....  ....................  ..XX....  ....................  ..XX....  ....................  ..XX....  ......",
"................................................................................................................................",
"................................................................................................................................",
"......  ......XX......  ..............  ......XX......  ..............  ......XX......  ..............  ......XX......  ........",
"......  ......XX......  ..............  ......XX......  ..............  ......XX......  ..............  ......XX......  ........",
"....XXXX......................  ....XXXX......................  ....XXXX......................  ....XXXX......................  ",
"....XXXX......................  ....XXXX......................  ....XXXX......................  ....XXXX......................  ",
"..  XXXX..........................  XXXX..........................  XXXX..........................  XXXX........................",
"..  XXXX..........................  XXXX..........................  XXXX..........................  XXXX........................",
"..................XX..............................XX..............................XX..............................XX............"
};
