/* XPM */
static char *result[] = {
/* columns rows colors chars-per-pixel */
"128 128 27 1 ",
"  c #302820",
". c #483038",
"X c #284000",
"o c #285810",
"O c #287020",
"+ c #387E43",
"@ c #685040",
"# c #308868",
"$ c #68A848",
"% c #69AA53",
"& c #6AAE67",
"* c #90C868",
"= c #40B080",
"- c #61AB8C",
"; c #67B492",
": c #68B694",
"> c #6AB896",
", c #6CBA99",
"< c #6CBB9A",
"1 c #6DBD9D",
"2 c #6EBE9D",
"3 c #6FBE9E",
"4 c #6FBF9F",
"5 c #70C0A0",
"6 c #80B098",
"7 c #9FCFBE",
"8 c #A0D0C0",
/* pixels */
"55555555555555555588555555555555555555555555555555885555555555555555555555555555558855555555555555555555555555555588555555555555",
"55555555555555555555555588885555555555555555555555555555888855555555555555555555555555558888555555555555555555555555555588885555",
"55555555555555555555555588885555555555555555555555555555888855555555555555555555555555558888555555555555555555555555555588885555",
"55555555555555555555555588885555555555555555555555555555888855555555555555555555555555558888555555555555555555555555555588885555",
"555555555555555555==555588885555555555555555555555==555588885555555555555555555555==555588885555555555555555555555==555588885555",
"555555555555555555==555588885555555555555555555555==555588885555555555555555555555==555588885555555555555555555555==55558888555=",
"55885555==55555555555555555555==55885555==55555555555555555555==55885555==55555555555555555555==55885555==55555555555555555555==",
"55885555==55555555555555555555==55885555==55555555555555555555==55885555==55555555555555555555==55885555==55555555555555555555=5",
"55555555555555555555555555555555555555555555555555555555555555555555555555555555555555555555555555555555555555555555555555555555",
"55555555555555555555555555555555555555555555555555555555555555555555555555555555555555555555555555555555555555555555555555555558",
"555555==55555555555555==55555588555555==55555555555555==55555588555555==55555555555555==55555588555555==55555555555555==55555588",
"555555==55555555555555==55555588555555==55555555555555==55555588555555==55555555555555==55555588555555==55555555555555==55555585",
"55555555555555==555588885555555555555555555555==55558888OOOO$$OOOO$$OOOO555555==555588885555555566555566555566==5555888855555555",
"55555555555555==555588885555555555555555555555==55558888OOOO$$OOOO$$OOOO555555==555588885555555566555566555566==5555888855555555",
"555555555555555555==888855555555555555555555555555==OOOO****OO$$$$OO****OOOO555555==888855555555556655555566555555==888855555555",
"555555555555555555==888855555555555555555555555555==OOOO****OO$$$$OO****OOOO555555==888855555555556655555566555555==888855555555",
"55885555555555555555555555555555558855555555555555OO**$$**$$********$$**$$**OO55555555555555555555885555555555555555555555555555",
"55885555555555555555555555555555558855555555555555OO**$$**$$********$$**$$**OO55555555555555555555885555555555555555555555555555",
"555555558888555555555555555555555555555588885555OO$$************************$$OO555555555555555555555555888855555555555555555555",
"555555558888555555555555555555555555555588885555OO$$************************$$OO555555555555555555555555888855555555555555555555",
"55==555588885555555555555555555555==555588885555****$$********************$$****555555555555555555==5555888855555555555555555555",
"55==555588885555555555555555555555==555588885555****$$********************$$****555555555555555555==5555888855555555555555555555",
"55555555555555==55885555==55555555555555555555==OO**$$********************$$**OO55885555==55555555555555555555==55885555==555555",
"55555555555555==55885555==55555555555555555555==OO**$$********************$$**OO55885555==55555555555555555555==55885555==555555",
"55555555555555555555555555555555555555OOOOOO**OO$$****************************$$OO**OOOOOO55555555555555555555555555555555555555",
"55555555555555555555555555555555555555OOOOOO**OO$$****************************$$OO**OOOOOO55555555555555555555555555555555555555",
"555555==55555588555555==5555555555OOXXXX****OO**$$$$****$$************$$****$$$$**OO****XXXXOO55555555==55555588555555==55555555",
"555555==55555588555555==5555555555OOXXXX****OO**$$$$****$$************$$****$$$$**OO****XXXXOO55555555==55555588555555==5555555=",
"555588885555555555555555555555==55OO**$$**OO**$$$$********$$$$****$$$$********$$$$**OO**$$**OO==555588885555555555555555555555==",
"555588885555555555555555555555==55OO**$$**OO**$$$$********$$$$****$$$$********$$$$**OO**$$**OO==555588885555555555555555555555=5",
"55==88885555555555555555555555OOOO$$$$OO$$OO**$$$$****************************$$$$**OO$$OO$$$$OOOO==8888555555555555555555555555",
"55==88885555555555555555555555OOOO$$$$OO$$OO**$$$$****************************$$$$**OO$$OO$$$$OOOO==8888555555555555555555555555",
"5555555555555555558855555555OO****$$******$$OO$$$$$$$$********************$$$$$$$$OO$$******$$****OO5555555555555588555555555555",
"5555555555555555558855555555OO****$$******$$OO$$$$$$$$********************$$$$$$$$OO$$******$$****OO5555555555555588555555555555",
"5555555555555555555555558888&&&&&&********$$$$$$$$$$$$********$$$$********$$$$$$$$$$$$********$$$$%%5555555555555555555588885555",
"5555555555555555555555558888&&&&&&********$$$$$$$$$$$$********$$$$********$$$$$$$$$$$$********$$$$%%5555555555555555555588885555",
"555555555555555555==555588OOXX************OOOO$$OO$$$$$$$$**$$$$$$$$**$$$$$$$$OO$$OOOO************XXOO555555555555==555588885555",
"555555555555555555==555588OOXX************OOOO$$OO$$$$$$$$**$$$$$$$$**$$$$$$$$OO$$OOOO************XXOO555555555555==55558888555=",
"55885555==55555555555555OO**************$$$$OOOO$$OO$$$$$$$$$$$$$$$$$$$$$$$$OO$$OOOO$$$$**************++==55555555555555555555==",
"55885555==55555555555555OO**************$$$$OOOO$$OO$$$$$$$$$$$$$$$$$$$$$$$$OO$$OOOO$$$$**************++==55555555555555555555=5",
"5555555555555555555555<<XX******$$$$**$$$$$$$$$$OOOO$$OO$$$$$$$$$$$$$$$$OO$$OOOO$$$$$$$$$$**$$$$******XX,,5555555555555555555555",
"5555555555555555555555<<XX******$$$$**$$$$$$$$$$OOOO$$OO$$$$$$$$$$$$$$$$OO$$OOOO$$$$$$$$$$**$$$$******XX,,5555555555555555555558",
"555555==55555555555555XX$$****$$OO$$****$$****OO$$XXOOOO$$$$OO$$$$OO$$$$OOOOXX$$OO****$$****$$OO$$****$$XX555555555555==55555588",
"555555==55555555555555XX$$****$$OO$$****$$****OO$$XXOOOO$$$$OO$$$$OO$$$$OOOOXX$$OO****$$****$$OO$$****$$XX555555555555==55555585",
"55555555555555==555588XX$$$$$$$$$$$$************OOOOXXXXOOXXOO$$$$OOXXOOXXXXOOOO************$$$$$$$$$$$$XX5555==5555888855555555",
"55555555555555==555588XX$$$$$$$$$$$$************OOOOXXXXOOXXOO$$$$OOXXOOXXXXOOOO************$$$$$$$$$$$$XX5555==5555888855555555",
"555555555555555555==88XX$$$$$$********************$$OOOOXXOOXX$$$$XXOOXXOOOO$$********************$$$$$$XX55555555==888855555555",
"555555555555555555==88XX$$$$$$********************$$OOOOXXOOXX$$$$XXOOXXOOOO$$********************$$$$$$XX55555555==888855555555",
"5588555555555555555555XX$$**$$********************$$OOOOOO$$$$OOOO$$$$OOOOOO$$********************$$**$$XX5555555555555555555555",
"5588555555555555555555XX$$**$$********************$$OOOOOO$$$$OOOO$$$$OOOOOO$$********************$$**$$XX5555555555555555555555",
"555555558888555555555544XXXX**********************$$$$$$$$****$$$$****$$$$$$$$**********************XXXX888855335555555555555555",
"555555558888555555555544XXXX**********************$$$$$$$$****$$$$****$$$$$$$$**********************XXXX888855335555555555555555",
"55==555588885555555555XX$$OO$$************************$$$$************$$$$************************$$OO$$XX8855555555555555555555",
"55==555588885555555555XX$$OO$$************************$$$$************$$$$************************$$OO$$XX8855555555555555555555",
"55555555555555==5588XX$$OO$$OO**********$$$$****$$****************************$$****$$$$**********OO$$OO$$XX11==55885555==555555",
"55555555555555==5588XX$$OO$$OO**********$$$$****$$****************************$$****$$$$**********OO$$OO$$XX11==55885555==555555",
"55555555555555555555XX$$$$OOOO$$******$$$$$$$$OO$$******$$************$$******$$OO$$$$$$$$******$$OOOO$$$$XX55555555555555555555",
"55555555555555555555XX$$$$OOOO$$******$$$$$$$$OO$$******$$************$$******$$OO$$$$$$$$******$$OOOO$$$$XX55555555555555555555",
"555555==5555558855XX$$**$$OO$$OO$$$$$$****$$$$OO**********$$$$****$$$$**********OO$$$$****$$$$$$OO$$OO$$**$$XX88555555==55555555",
"555555==5555558855XX$$**$$OO$$OO$$$$$$****$$$$OO**********$$$$****$$$$**********OO$$$$****$$$$$$OO$$OO$$**$$XX88555555==5555555=",
"555588885555555555XX$$$$**$$OOOOOO$$$$****$$OOOO**$$************************$$**OOOO$$****$$$$OOOOOO$$**$$$$XX5555555555555555==",
"555588885555555555XX$$$$**$$OOOOOO$$$$****$$OOOO**$$************************$$**OOOO$$****$$$$OOOOOO$$**$$$$XX5555555555555555=5",
"55==88885555555555OOOO**$$**$$OOOOOOOO$$$$OOXXOOOO$$************************$$OOOOXXOO$$$$OOOOOOOO$$**$$**OOOO555555555555555555",
"55==88885555555555OOOO**$$**$$OOOOOOOO$$$$OOXXOOOO$$************************$$OOOOXXOO$$$$OOOOOOOO$$**$$**OOOO555555555555555555",
"555555555555555555OO$$$$**$$$$$$OOOOOOOOOOOOXXXXOOOO$$$$******$$$$******$$$$OOOOXXXXOOOOOOOOOOOO$$$$$$**$$$$OO555588555555555555",
"555555555555555555OO$$$$**$$$$$$OOOOOOOOOOOOXXXXOOOO$$$$******$$$$******$$$$OOOOXXXXOOOOOOOOOOOO$$$$$$**$$$$OO555588555555555555",
"555555555555555555XX$$$$$$$$$$OO$$OOOOOOXXXXXXXXOOOOOOOO$$$$$$$$$$$$$$$$OOOOOOOOXXXXXXXXOOOOOO$$OO$$$$$$$$$$XX555555555588885555",
"555555555555555555XX$$$$$$$$$$OO$$OOOOOOXXXXXXXXOOOOOOOO$$$$$$$$$$$$$$$$OOOOOOOOXXXXXXXXOOOOOO$$OO$$$$$$$$$$XX555555555588885555",
"555555555555555555XXOOOO$$$$OO$$$$OOOOXXXXOOXXXXXXXXOOOOOOOOOO$$$$OOOOOOOOOOXXXXXXXXOOXXXXOOOO$$$$OO$$$$OOOOXX5555==555588885555",
"555555555555555555XXOOOO$$$$OO$$$$OOOOXXXXOOXXXXXXXXOOOOOOOOOO$$$$OOOOOOOOOOXXXXXXXXOOXXXXOOOO$$$$OO$$$$OOOOXX5555==55558888555=",
"55885555==55555555::OOOOOOOOOO$$OOXXOOXX$$OOOOOOOOXXXXOOOOOOOOOOOOOOOOOOOOXXXXOOOOOOOO$$XXOOXXOO$$OOOOOOOOOO>>5555555555555555==",
"55885555==55555555::OOOOOOOOOO$$OOXXOOXX$$OOOOOOOOXXXXOOOOOOOOOOOOOOOOOOOOXXXXOOOOOOOO$$XXOOXXOO$$OOOOOOOOOO>>5555555555555555=5",
"55555555555555555555XXOOOOOOOOOO$$XXOO$$$$$$$$OO$$XXOOOOOO$$OOOOOOOO$$OOOOOOXX$$OO$$$$$$$$OOXX$$OOOOOOOOOOXX55555555555555555555",
"55555555555555555555XXOOOOOOOOOO$$XXOO$$$$$$$$OO$$XXOOOOOO$$OOOOOOOO$$OOOOOOXX$$OO$$$$$$$$OOXX$$OOOOOOOOOOXX55555555555555555558",
"555555==55555555555555XXXXXXXXOOOOOOOO$$$$$$$$$$$$$$OOOO$$$$$$OOOO$$$$$$OOOO$$$$$$$$$$$$$$OOOOOOOOXXXXXXXX335555555555==55555588",
"555555==55555555555555XXXXXXXXOOOOOOOO$$$$$$$$$$$$$$OOOO$$$$$$OOOO$$$$$$OOOO$$$$$$$$$$$$$$OOOOOOOOXXXXXXXX335555555555==55555585",
"55555555555555==55558877XXXXXXOOOOOO$$OO$$$$$$$$$$$$OOOO$$$$OOOOOOOO$$$$OOOO$$$$$$$$$$$$OO$$OOOOOOXXXXXX225555==5555888855555555",
"55555555555555==55558877XXXXXXOOOOOO$$OO$$$$$$$$$$$$OOOO$$$$OOOOOOOO$$$$OOOO$$$$$$$$$$$$OO$$OOOOOOXXXXXX225555==5555888855555555",
"555555555555555555==888844XXXXXXXX$$OO$$$$$$$$$$$$$$OOOOXX$$OOOOOOOO$$XXOOOO$$$$$$$$$$$$$$OO$$XXXXXXXX225555555555==888855555555",
"555555555555555555==888844XXXXXXXX$$OO$$$$$$$$$$$$$$OOOOXX$$OOOOOOOO$$XXOOOO$$$$$$$$$$$$$$OO$$XXXXXXXX225555555555==888855555555",
"558855555555555555555555555555XXXXXX$$$$OO$$OO$$$$OOOOXXXXOOOOOOOOOOOOXXXXOOOO$$$$OO$$OO$$$$XXXXXX885555555555555555555555555555",
"558855555555555555555555555555XXXXXX$$$$OO$$OO$$$$OOOOXXXXOOOOOOOOOOOOXXXXOOOO$$$$OO$$OO$$$$XXXXXX885555555555555555555555555555",
"55555555888855555555555555555555XXXXOOXXOOOOOOOOOOOOXXOOXXXXOOXXXXOOXXXXOOXXOOOOOOOOOOOOXXOOXXXX55555555888855555555555555555555",
"55555555888855555555555555555555XXXXOOXXOOOOOOOOOOOOXXOOXXXXOOXXXXOOXXXXOOXXOOOOOOOOOOOOXXOOXXXX55555555888855555555555555555555",
"55==555588885555555555555555555555XXXXOOXXOOXXOOOOXXXXXXXXXXXXXXXXXXXXXXXXXXXXOOOOXXOOXXOOXXXX5555==5555888855555555555555555555",
"55==555588885555555555555555555555XXXXOOXXOOXXOOOOXXXXXXXXXXXXXXXXXXXXXXXXXXXXOOOOXXOOXXOOXXXX5555==5555888855555555555555555555",
"55555555555555==--885555==555555####XXXXOOOOXXXXXXXXXXXX      XXXX      XXXXXXXXOOOOOOOOXXXX####55555555555555==55885555==555555",
"55555555555555==--885555==555555####XXXXOOOOXXXXXXXXXXXX      XXXX      XXXXXXXXOOOOOOOOXXXX####55555555555555==55885555==555555",
"555555555555555555555555555555########XXXXXXXXooXXXXXXXX  @@        @@  XXXXXXXXooXXXXXXXX########555555555555555555555555555555",
"555555555555555555555555555555########XXXXXXXXooXXXXXXXX  @@        @@  XXXXXXXXooXXXXXXXX########555555555555555555555555555555",
"555555==55555588555555==5555##############XXXXXXXXXXXXXX  @@........@@  XXXXXXXXXXXXXX##############55==55555588555555==55555555",
"555555==55555588555555==5555##############XXXXXXXXXXXXXX  @@........@@  XXXXXXXXXXXXXX##############55==55555588555555==5555555=",
"55558888555555555555555555##############XXXXXXXXXXXXXXXX  @@........@@  XXXXXXXXXXXXXXXX##############885555555555555555555555==",
"55558888555555555555555555##############XXXXXXXXXXXXXXXX  @@........@@  XXXXXXXXXXXXXXXX##############885555555555555555555555=5",
"55==8888555555555555555555##############XXXXXXXXXXXXXXXXXX  ........  XXXXXXXXXXXXXXXXXX##############88555555555555555555555555",
"55==8888555555555555555555##############XXXXXXXXXXXXXXXXXX  ........  XXXXXXXXXXXXXXXXXX##############88555555555555555555555555",
"55555555555555555588555555##############XXXXXXXXXXXXXXXXXXXX        XXXXXXXXXXXXXXXXXXXX##############55555555555588555555555555",
"55555555555555555588555555##############XXXXXXXXXXXXXXXXXXXX        XXXXXXXXXXXXXXXXXXXX##############55555555555588555555555555",
"55555555555555555555555588################XXXXXXXXXXXXXXXXXXXXXXXXXXXXXXXXXXXXXXXXXXXX################55555555555555555588885555",
"55555555555555555555555588################XXXXXXXXXXXXXXXXXXXXXXXXXXXXXXXXXXXXXXXXXXXX################55555555555555555588885555",
"555555555555555555==55558888##################XXXXXXXXXXXXXXXXXXXXXXXXXXXXXXXXXXXX##################55555555555555==555588885555",
"555555555555555555==55558888##################XXXXXXXXXXXXXXXXXXXXXXXXXXXXXXXXXXXX##################55555555555555==55558888555=",
"55885555==55555555555555555555####################XXXXXXXXXXXXXXXXXXXXXXXXXXXX####################885555==55555555555555555555==",
"55885555==55555555555555555555####################XXXXXXXXXXXXXXXXXXXXXXXXXXXX####################885555==55555555555555555555=5",
"5555555555555555555555555555555555######################XXXXXXXXXXXXXXXX######################5555555555555555555555555555555555",
"5555555555555555555555555555555555######################XXXXXXXXXXXXXXXX######################5555555555555555555555555555555558",
"555555==55555555555555==555555885555;;####################################################555588555555==55555555555555==55555588",
"555555==55555555555555==555555885555;;####################################################555588555555==55555555555555==55555585",
"55555555555555==5555888855555555555555555555########################################88885555555555555555555555==5555888855555555",
"55555555555555==5555888855555555555555555555########################################88885555555555555555555555==5555888855555555",
"555555555555555555==888855555555555555555555555555############################5555==888855555555555555555555555555==888855555555",
"555555555555555555==888855555555555555555555555555############################5555==888855555555555555555555555555==888855555555",
"55885555555555555555555555555555558855555555555555555555555555555588555555555555555555555555555555885555555555555555555555555555",
"55885555555555555555555555555555558855555555555555555555555555555588555555555555555555555555555555885555555555555555555555555555",
"55555555888855555555555555555555555555558888555555555555555555555555555588885555555555555555555555555555888855555555555555555555",
"55555555888855555555555555555555555555558888555555555555555555555555555588885555555555555555555555555555888855555555555555555555",
"55==555588885555555555555555555555==555588885555555555555555555555==555588885555555555555555555555==5555888855555555555555555555",
"55==555588885555555555555555555555==555588885555555555555555555555==555588885555555555555555555555==5555888855555555555555555555",
"55555555555555==55885555==55555555555555555555==55885555==55555555555555555555==55885555==55555555555555555555==55885555==555555",
"55555555555555==55885555==55555555555555555555==55885555==55555555555555555555==55885555==55555555555555555555==55885555==555555",
"55555555555555555555555555555555555555555555555555555555555555555555555555555555555555555555555555555555555555555555555555555555",
"55555555555555555555555555555555555555555555555555555555555555555555555555555555555555555555555555555555555555555555555555555555",
"555555==55555588555555==55555555555555==55555588555555==55555555555555==55555588555555==55555555555555==55555588555555==55555555",
"555555==55555588555555==55555555555555==55555588555555==55555555555555==55555588555555==55555555555555==55555588555555==5555555=",
"555588885555555555555555555555==555588885555555555555555555555==555588885555555555555555555555==555588885555555555555555555555==",
"555588885555555555555555555555==555588885555555555555555555555==555588885555555555555555555555==555588885555555555555555555555=5",
"55==888855555555555555555555555555==888855555555555555555555555555==888855555555555555555555555555==8888555555555555555555555555",
"55==888855555555555555555555555555==888855555555555555555555555555==888855555555555555555555555555==8888555555555555555555555555"
};
